#N canvas 754 112 641 504 10;
#N canvas 0 22 450 278 (subpatch) 0;
#X array dialogue 705600 float 2;
#X coords 0 1 705600 -1 200 140 1 0 0;
#X restore 392 118 graph;
#X obj 103 96 env~;
#X floatatom 101 123 5 0 0 0 - - -;
#X obj 100 163 change 0;
#X floatatom 99 183 5 0 0 0 - - -;
#X text 132 143 <- change threshold here;
#X obj 51 360 line~;
#X obj 54 304 t b b;
#X msg 46 331 0;
#X obj 55 203 sel 0;
#X obj 188 327 spigot;
#X obj 148 203 sel 1;
#X obj 189 306 t b f;
#X msg 147 222 1;
#X msg 326 293 stop;
#X obj 147 245 + 1;
#X floatatom 147 267 5 0 0 0 - - -;
#X msg 101 227 0;
#X obj 146 287 sel 1;
#X msg 153 306 1;
#X obj 55 281 delay 3000;
#X obj 188 347 t b b;
#X text 165 2 Lab1: dialogue-style recording & playing back;
#X obj 102 54 inlet~;
#X obj 50 404 outlet~;
#X obj 51 381 tabread~ dialogue;
#X obj 323 359 tabwrite~ dialogue;
#X text 149 53 <- use adc~ as inlet to record;
#X obj 189 224 metro 100;
#X msg 198 204 0;
#X obj 55 226 t b b;
#X msg 106 344 705600 16000;
#X obj 408 447 spigot;
#X obj 378 411 metro 50;
#X obj 377 390 tgl 15 0 empty empty empty 17 7 0 10 -262144 -1 -1 0
1;
#X floatatom 553 396 5 0 0 0 - - -;
#X obj 433 392 r loudness;
#X msg 214 366 \; dialogue const 0;
#X obj 379 459 bng 15 250 50 0 empty empty empty 17 7 0 10 -262144
-1 -1;
#X msg 407 429 stop;
#X msg 494 462 1;
#X obj 493 430 delay 3000;
#X msg 531 463 0;
#X obj 439 420 < 0.01;
#X text 402 471 not used;
#X obj 100 143 > 75;
#X connect 1 0 2 0;
#X connect 2 0 45 0;
#X connect 3 0 4 0;
#X connect 4 0 9 0;
#X connect 4 0 11 0;
#X connect 6 0 25 0;
#X connect 7 0 31 0;
#X connect 7 1 8 0;
#X connect 8 0 6 0;
#X connect 9 0 30 0;
#X connect 10 0 21 0;
#X connect 11 0 13 0;
#X connect 11 0 28 0;
#X connect 12 0 10 0;
#X connect 12 1 10 1;
#X connect 13 0 15 0;
#X connect 14 0 26 0;
#X connect 15 0 16 0;
#X connect 16 0 15 1;
#X connect 16 0 18 0;
#X connect 17 0 15 1;
#X connect 17 0 16 0;
#X connect 18 0 19 0;
#X connect 19 0 12 0;
#X connect 20 0 7 0;
#X connect 20 0 14 0;
#X connect 20 0 17 0;
#X connect 21 0 26 0;
#X connect 21 1 37 0;
#X connect 23 0 1 0;
#X connect 23 0 26 0;
#X connect 25 0 24 0;
#X connect 28 0 20 0;
#X connect 29 0 28 0;
#X connect 30 0 20 0;
#X connect 30 1 29 0;
#X connect 31 0 6 0;
#X connect 32 0 38 0;
#X connect 33 0 39 0;
#X connect 34 0 33 0;
#X connect 36 0 35 0;
#X connect 36 0 43 0;
#X connect 37 0 26 0;
#X connect 38 0 42 0;
#X connect 39 0 32 0;
#X connect 40 0 32 1;
#X connect 41 0 40 0;
#X connect 42 0 32 1;
#X connect 43 0 41 0;
#X connect 45 0 3 0;
