#N canvas 673 321 563 300 10;
#X floatatom 26 95 5 0 0 0 - - -;
#X floatatom 66 94 5 0 0 0 - - -;
#X obj 27 133 osc~;
#X obj 28 153 *~;
#X msg 70 115 \$1 20;
#X obj 70 135 line~;
#X obj 25 54 inlet;
#X obj 28 175 outlet~;
#X obj 184 77 unpack 0 0 0 0;
#X floatatom 185 97 5 0 0 0 - - -;
#X floatatom 225 96 5 0 0 0 - - -;
#X obj 186 135 osc~;
#X obj 187 155 *~;
#X msg 229 117 \$1 20;
#X obj 229 137 line~;
#X obj 184 56 inlet;
#X obj 187 177 outlet~;
#X obj 304 69 unpack 0 0 0 0;
#X floatatom 305 89 5 0 0 0 - - -;
#X floatatom 342 89 5 0 0 0 - - -;
#X obj 307 169 osc~;
#X obj 308 189 *~;
#X msg 381 111 \$1 20;
#X obj 381 131 line~;
#X obj 304 48 inlet;
#X obj 308 211 outlet~;
#X text 21 31 one octave lower;
#X text 181 30 shift up;
#X obj 307 150 +~;
#X obj 186 116 +~ 220;
#X obj 443 70 unpack 0 0 0 0;
#X floatatom 444 90 5 0 0 0 - - -;
#X floatatom 481 90 5 0 0 0 - - -;
#X obj 445 124 osc~;
#X obj 445 144 *~;
#X msg 480 110 \$1 20;
#X obj 480 130 line~;
#X obj 443 49 inlet;
#X obj 445 166 outlet~;
#X text 436 25 normal;
#X text 297 24 volume based;
#X obj 332 121 * 100;
#X obj 25 75 unpack 0 0 0 0;
#X obj 27 114 *~ 2;
#X connect 0 0 43 0;
#X connect 1 0 4 0;
#X connect 2 0 3 0;
#X connect 3 0 7 0;
#X connect 4 0 5 0;
#X connect 5 0 3 1;
#X connect 6 0 42 0;
#X connect 8 0 9 0;
#X connect 8 1 10 0;
#X connect 9 0 29 0;
#X connect 10 0 13 0;
#X connect 11 0 12 0;
#X connect 12 0 16 0;
#X connect 13 0 14 0;
#X connect 14 0 12 1;
#X connect 15 0 8 0;
#X connect 17 0 18 0;
#X connect 17 1 19 0;
#X connect 18 0 28 0;
#X connect 19 0 22 0;
#X connect 19 0 41 0;
#X connect 20 0 21 0;
#X connect 21 0 25 0;
#X connect 22 0 23 0;
#X connect 23 0 21 1;
#X connect 24 0 17 0;
#X connect 28 0 20 0;
#X connect 29 0 11 0;
#X connect 30 0 31 0;
#X connect 30 1 32 0;
#X connect 31 0 33 0;
#X connect 32 0 35 0;
#X connect 33 0 34 0;
#X connect 34 0 38 0;
#X connect 35 0 36 0;
#X connect 36 0 34 1;
#X connect 37 0 30 0;
#X connect 41 0 28 1;
#X connect 42 0 0 0;
#X connect 42 1 1 0;
#X connect 43 0 2 0;
