#N canvas 27 23 650 556 10;
#X obj 236 105 sigmund~ -npeak 10 peaks;
#X obj 236 125 route 0 1 2 3 4 5 6 7 8 9;
#X obj 89 173 unpack 0 0 0 0, f 7;
#X floatatom 90 353 5 0 0 0 - - -;
#X floatatom 101 206 5 0 0 0 - - -;
#X obj 139 173 unpack 0 0 0 0, f 7;
#X floatatom 142 354 5 0 0 0 - - -;
#X floatatom 151 206 5 0 0 0 - - -;
#X obj 189 173 unpack 0 0 0 0, f 7;
#X floatatom 192 354 5 0 0 0 - - -;
#X floatatom 201 206 5 0 0 0 - - -;
#X obj 239 173 unpack 0 0 0 0, f 7;
#X floatatom 242 354 5 0 0 0 - - -;
#X floatatom 251 206 5 0 0 0 - - -;
#X obj 288 173 unpack 0 0 0 0, f 7;
#X floatatom 291 354 5 0 0 0 - - -;
#X floatatom 300 206 5 0 0 0 - - -;
#X obj 338 173 unpack 0 0 0 0, f 7;
#X floatatom 341 354 5 0 0 0 - - -;
#X floatatom 350 206 5 0 0 0 - - -;
#X obj 388 173 unpack 0 0 0 0, f 7;
#X floatatom 391 354 5 0 0 0 - - -;
#X floatatom 400 206 5 0 0 0 - - -;
#X obj 438 173 unpack 0 0 0 0, f 7;
#X floatatom 441 354 5 0 0 0 - - -;
#X floatatom 450 206 5 0 0 0 - - -;
#X obj 488 173 unpack 0 0 0 0, f 7;
#X floatatom 491 354 5 0 0 0 - - -;
#X floatatom 500 206 5 0 0 0 - - -;
#X obj 537 173 unpack 0 0 0 0, f 7;
#X floatatom 540 354 5 0 0 0 - - -;
#X floatatom 549 206 5 0 0 0 - - -;
#X obj 90 441 pack f f f f f f f f f f;
#X obj 141 372 t b f;
#X obj 193 372 t b f;
#X obj 243 371 t b f;
#X obj 291 372 t b f;
#X obj 341 372 t b f;
#X obj 393 372 t b f;
#X obj 443 371 t b f;
#X obj 491 372 t b f;
#X obj 540 372 t b f;
#X obj 90 464 s freq;
#X obj 103 304 pack f f f f f f f f f f;
#X obj 103 327 s amp;
#X obj 148 226 t b f;
#X obj 200 226 t b f;
#X obj 250 225 t b f;
#X obj 298 226 t b f;
#X obj 348 226 t b f;
#X obj 400 226 t b f;
#X obj 450 225 t b f;
#X obj 498 226 t b f;
#X obj 547 226 t b f;
#X text 114 11 Lab 5: frequency and amplitude analysis for the 10 loudest
peaks, f 65;
#X obj 236 76 inlet~;
#X connect 0 0 1 0;
#X connect 1 0 2 0;
#X connect 1 1 5 0;
#X connect 1 2 8 0;
#X connect 1 3 11 0;
#X connect 1 4 14 0;
#X connect 1 5 17 0;
#X connect 1 6 20 0;
#X connect 1 7 23 0;
#X connect 1 8 26 0;
#X connect 1 9 29 0;
#X connect 2 0 3 0;
#X connect 2 1 4 0;
#X connect 3 0 32 0;
#X connect 4 0 43 0;
#X connect 5 0 6 0;
#X connect 5 1 7 0;
#X connect 6 0 33 0;
#X connect 7 0 45 0;
#X connect 8 0 9 0;
#X connect 8 1 10 0;
#X connect 9 0 34 0;
#X connect 10 0 46 0;
#X connect 11 0 12 0;
#X connect 11 1 13 0;
#X connect 12 0 35 0;
#X connect 13 0 47 0;
#X connect 14 0 15 0;
#X connect 14 1 16 0;
#X connect 15 0 36 0;
#X connect 16 0 48 0;
#X connect 17 0 18 0;
#X connect 17 1 19 0;
#X connect 18 0 37 0;
#X connect 19 0 49 0;
#X connect 20 0 21 0;
#X connect 20 1 22 0;
#X connect 21 0 38 0;
#X connect 22 0 50 0;
#X connect 23 0 24 0;
#X connect 23 1 25 0;
#X connect 24 0 39 0;
#X connect 25 0 51 0;
#X connect 26 0 27 0;
#X connect 26 1 28 0;
#X connect 27 0 40 0;
#X connect 28 0 52 0;
#X connect 29 0 30 0;
#X connect 29 1 31 0;
#X connect 30 0 41 0;
#X connect 31 0 53 0;
#X connect 32 0 42 0;
#X connect 33 0 32 0;
#X connect 33 1 32 1;
#X connect 34 0 32 0;
#X connect 34 1 32 2;
#X connect 35 0 32 0;
#X connect 35 1 32 3;
#X connect 36 0 32 0;
#X connect 36 1 32 4;
#X connect 37 0 32 0;
#X connect 37 1 32 5;
#X connect 38 0 32 0;
#X connect 38 1 32 6;
#X connect 39 0 32 0;
#X connect 39 1 32 7;
#X connect 40 0 32 0;
#X connect 40 1 32 8;
#X connect 41 0 32 0;
#X connect 41 1 32 9;
#X connect 43 0 44 0;
#X connect 45 0 43 0;
#X connect 45 1 43 1;
#X connect 46 0 43 0;
#X connect 46 1 43 2;
#X connect 47 0 43 0;
#X connect 47 1 43 3;
#X connect 48 0 43 0;
#X connect 48 1 43 4;
#X connect 49 0 43 0;
#X connect 49 1 43 5;
#X connect 50 0 43 0;
#X connect 50 1 43 6;
#X connect 51 0 43 0;
#X connect 51 1 43 7;
#X connect 52 0 43 0;
#X connect 52 1 43 8;
#X connect 53 0 43 0;
#X connect 53 1 43 9;
#X connect 55 0 0 0;
