#N canvas 33 74 1407 686 10;
#X obj 620 16 r freq;
#X obj 621 37 unpack f f f f f f f f f f;
#X floatatom 621 65 5 0 0 0 - - -;
#X obj 620 103 +;
#X floatatom 622 153 10 0 0 0 - - -;
#X obj 661 118 +;
#X msg 661 100 1;
#X floatatom 661 137 5 0 0 0 - - -;
#X obj 622 174 /;
#X obj 621 84 t f b;
#X msg 626 122 0;
#X floatatom 619 194 5 0 0 0 - - -;
#X floatatom 697 65 5 0 0 0 - - -;
#X obj 696 103 +;
#X floatatom 698 153 10 0 0 0 - - -;
#X obj 737 118 +;
#X msg 737 100 1;
#X floatatom 737 137 5 0 0 0 - - -;
#X obj 698 174 /;
#X obj 697 84 t f b;
#X msg 702 122 0;
#X floatatom 697 196 5 0 0 0 - - -;
#X floatatom 774 66 5 0 0 0 - - -;
#X obj 773 104 +;
#X floatatom 775 154 10 0 0 0 - - -;
#X obj 814 119 +;
#X msg 814 101 1;
#X floatatom 814 138 5 0 0 0 - - -;
#X obj 775 175 /;
#X obj 774 85 t f b;
#X msg 779 123 0;
#X floatatom 761 195 5 0 0 0 - - -;
#X floatatom 850 66 5 0 0 0 - - -;
#X obj 849 104 +;
#X floatatom 851 154 10 0 0 0 - - -;
#X obj 890 119 +;
#X msg 890 101 1;
#X floatatom 890 138 5 0 0 0 - - -;
#X obj 851 175 /;
#X obj 850 85 t f b;
#X msg 855 123 0;
#X floatatom 846 195 5 0 0 0 - - -;
#X floatatom 929 66 5 0 0 0 - - -;
#X obj 928 104 +;
#X floatatom 930 154 10 0 0 0 - - -;
#X obj 969 119 +;
#X msg 969 101 1;
#X floatatom 969 138 5 0 0 0 - - -;
#X obj 930 175 /;
#X obj 929 85 t f b;
#X msg 934 123 0;
#X floatatom 929 196 5 0 0 0 - - -;
#X floatatom 1005 66 5 0 0 0 - - -;
#X obj 1004 104 +;
#X floatatom 1006 154 10 0 0 0 - - -;
#X obj 1045 119 +;
#X msg 1045 101 1;
#X floatatom 1045 138 5 0 0 0 - - -;
#X obj 1006 175 /;
#X obj 1005 85 t f b;
#X msg 1010 123 0;
#X floatatom 1003 196 5 0 0 0 - - -;
#X floatatom 1082 67 5 0 0 0 - - -;
#X obj 1081 105 +;
#X floatatom 1083 155 10 0 0 0 - - -;
#X obj 1122 120 +;
#X msg 1122 102 1;
#X floatatom 1122 139 5 0 0 0 - - -;
#X obj 1083 176 /;
#X obj 1082 86 t f b;
#X msg 1087 124 0;
#X floatatom 1081 197 5 0 0 0 - - -;
#X floatatom 1158 67 5 0 0 0 - - -;
#X obj 1157 105 +;
#X floatatom 1159 155 10 0 0 0 - - -;
#X obj 1198 120 +;
#X msg 1198 102 1;
#X floatatom 1198 139 5 0 0 0 - - -;
#X obj 1159 176 /;
#X obj 1158 86 t f b;
#X msg 1163 124 0;
#X floatatom 1236 68 5 0 0 0 - - -;
#X obj 1235 106 +;
#X floatatom 1237 156 10 0 0 0 - - -;
#X obj 1276 121 +;
#X msg 1276 103 1;
#X floatatom 1276 140 5 0 0 0 - - -;
#X obj 1237 177 /;
#X obj 1236 87 t f b;
#X msg 1241 125 0;
#X floatatom 1312 68 5 0 0 0 - - -;
#X obj 1311 106 +;
#X floatatom 1313 156 10 0 0 0 - - -;
#X obj 1352 121 +;
#X msg 1352 103 1;
#X floatatom 1352 140 5 0 0 0 - - -;
#X obj 1313 177 /;
#X obj 1312 87 t f b;
#X msg 1317 125 0;
#X obj 578 109 bng 15 250 50 0 empty empty empty 17 7 0 10 -262144
-1 -1;
#X floatatom 1160 198 5 0 0 0 - - -;
#X floatatom 1234 198 5 0 0 0 - - -;
#X floatatom 1312 199 5 0 0 0 - - -;
#X obj 624 250 unpack f f f f f f f f f f;
#X floatatom 624 278 5 0 0 0 - - -;
#X obj 623 316 +;
#X floatatom 625 366 10 0 0 0 - - -;
#X obj 664 331 +;
#X msg 664 313 1;
#X floatatom 664 350 5 0 0 0 - - -;
#X obj 625 387 /;
#X obj 624 297 t f b;
#X msg 629 335 0;
#X floatatom 622 407 5 0 0 0 - - -;
#X floatatom 700 278 5 0 0 0 - - -;
#X obj 699 316 +;
#X floatatom 701 366 10 0 0 0 - - -;
#X obj 740 331 +;
#X msg 740 313 1;
#X floatatom 740 350 5 0 0 0 - - -;
#X obj 701 387 /;
#X obj 700 297 t f b;
#X msg 705 335 0;
#X floatatom 700 409 5 0 0 0 - - -;
#X floatatom 777 279 5 0 0 0 - - -;
#X obj 776 317 +;
#X floatatom 778 367 10 0 0 0 - - -;
#X obj 817 332 +;
#X msg 817 314 1;
#X floatatom 817 351 5 0 0 0 - - -;
#X obj 778 388 /;
#X obj 777 298 t f b;
#X msg 782 336 0;
#X floatatom 764 408 5 0 0 0 - - -;
#X floatatom 853 279 5 0 0 0 - - -;
#X obj 852 317 +;
#X floatatom 854 367 10 0 0 0 - - -;
#X obj 893 332 +;
#X msg 893 314 1;
#X floatatom 893 351 5 0 0 0 - - -;
#X obj 854 388 /;
#X obj 853 298 t f b;
#X msg 858 336 0;
#X floatatom 849 408 5 0 0 0 - - -;
#X floatatom 932 279 5 0 0 0 - - -;
#X obj 931 317 +;
#X floatatom 933 367 10 0 0 0 - - -;
#X obj 972 332 +;
#X msg 972 314 1;
#X floatatom 972 351 5 0 0 0 - - -;
#X obj 933 388 /;
#X obj 932 298 t f b;
#X msg 937 336 0;
#X floatatom 932 409 5 0 0 0 - - -;
#X floatatom 1008 279 5 0 0 0 - - -;
#X obj 1007 317 +;
#X floatatom 1009 367 10 0 0 0 - - -;
#X obj 1048 332 +;
#X msg 1048 314 1;
#X floatatom 1048 351 5 0 0 0 - - -;
#X obj 1009 388 /;
#X obj 1008 298 t f b;
#X msg 1013 336 0;
#X floatatom 1006 409 5 0 0 0 - - -;
#X floatatom 1085 280 5 0 0 0 - - -;
#X obj 1084 318 +;
#X floatatom 1086 368 10 0 0 0 - - -;
#X obj 1125 333 +;
#X msg 1125 315 1;
#X floatatom 1125 352 5 0 0 0 - - -;
#X obj 1086 389 /;
#X obj 1085 299 t f b;
#X msg 1090 337 0;
#X floatatom 1084 410 5 0 0 0 - - -;
#X floatatom 1161 280 5 0 0 0 - - -;
#X obj 1160 318 +;
#X floatatom 1162 368 10 0 0 0 - - -;
#X obj 1201 333 +;
#X msg 1201 315 1;
#X floatatom 1201 352 5 0 0 0 - - -;
#X obj 1162 389 /;
#X obj 1161 299 t f b;
#X msg 1166 337 0;
#X floatatom 1239 281 5 0 0 0 - - -;
#X obj 1238 319 +;
#X floatatom 1240 369 10 0 0 0 - - -;
#X obj 1279 334 +;
#X msg 1279 316 1;
#X floatatom 1279 353 5 0 0 0 - - -;
#X obj 1240 390 /;
#X obj 1239 300 t f b;
#X msg 1244 338 0;
#X floatatom 1315 281 5 0 0 0 - - -;
#X obj 1314 319 +;
#X floatatom 1316 369 10 0 0 0 - - -;
#X obj 1355 334 +;
#X msg 1355 316 1;
#X floatatom 1355 353 5 0 0 0 - - -;
#X obj 1316 390 /;
#X obj 1315 300 t f b;
#X msg 1320 338 0;
#X obj 581 322 bng 15 250 50 0 empty empty empty 17 7 0 10 -262144
-1 -1;
#X floatatom 1163 411 5 0 0 0 - - -;
#X floatatom 1237 411 5 0 0 0 - - -;
#X floatatom 1315 412 5 0 0 0 - - -;
#X obj 623 229 r amp;
#X obj 1274 437 +;
#X obj 1193 435 +;
#X obj 1090 433 +;
#X obj 1009 431 +;
#X obj 929 434 +;
#X obj 848 432 +;
#X obj 764 431 +;
#X obj 697 429 +;
#X obj 622 427 +;
#X floatatom 622 449 5 0 0 0 - - -;
#X text 544 448 overall amp;
#X text 486 193 overall loudest freq;
#X obj 1164 463 > 0.002;
#X obj 1164 483 sel 1;
#X obj 1165 523 +;
#X msg 1165 503 1;
#X floatatom 1165 543 5 0 0 0 - - -;
#X obj 1165 561 /;
#X floatatom 1165 581 5 0 0 0 - - -;
#X obj 35 69 dialogue;
#X obj 35 43 adc~;
#X obj 35 96 peaks;
#X obj 70 316 ramp~;
#X obj 56 336 *~;
#X obj 55 250 osc~;
#X obj 58 231 * 1;
#X obj 121 316 ramp~;
#X obj 103 251 osc~;
#X obj 113 226 bng 15 250 50 0 empty empty empty 17 7 0 10 -262144
-1 -1;
#X obj 106 337 *~;
#X obj 216 319 ramp~;
#X obj 202 339 *~;
#X obj 201 253 osc~;
#X obj 204 234 * 1;
#X obj 267 319 ramp~;
#X obj 249 254 osc~;
#X obj 259 229 bng 15 250 50 0 empty empty empty 17 7 0 10 -262144
-1 -1;
#X obj 252 340 *~;
#X msg 224 298 40 400 0.2 700;
#X obj 56 357 *~ 0.6;
#X obj 106 358 *~ 0.4;
#X obj 202 360 *~ 0.6;
#X obj 252 361 *~ 0.4;
#X obj 56 380 +~;
#X obj 202 381 +~;
#X obj 349 317 ramp~;
#X obj 335 337 *~;
#X obj 334 251 osc~;
#X obj 337 232 * 1;
#X obj 400 317 ramp~;
#X obj 382 252 osc~;
#X obj 392 227 bng 15 250 50 0 empty empty empty 17 7 0 10 -262144
-1 -1;
#X obj 385 338 *~;
#X obj 335 358 *~ 0.6;
#X obj 385 359 *~ 0.4;
#X obj 335 379 +~;
#X obj 171 606 dac~ 1 2 2 1;
#X obj 344 458 *~ 4;
#X obj 337 514 dac~ 1 2 2 1;
#X obj 439 458 *~ 4;
#X obj 427 514 dac~ 1 2 2 1;
#X obj 439 430 phasor~ 12;
#X obj 344 430 phasor~ 0.2;
#X obj 55 460 dac~ 1 2 2 1;
#X obj 202 461 dac~ 1 2 2 1;
#X obj 229 381 phasor~ 0.9;
#X obj 155 431 *~ 1.5;
#X obj 84 380 phasor~ 0.5;
#X obj 56 431 pan4~;
#X obj 203 432 pan4~;
#X obj 337 486 pan4~;
#X obj 427 486 pan4~;
#X floatatom 59 199 5 0 0 0 - - -;
#X floatatom 208 201 5 0 0 0 - - -;
#X floatatom 335 204 5 0 0 0 - - -;
#X obj 622 469 s loudness;
#X obj 335 134 <;
#X obj 335 155 sel 0;
#X obj 372 155 sel 1;
#X text 1070 600 peak strenghth;
#X obj 171 577 rev3~ 100 95 1000 20;
#X obj 338 543 r loudness;
#X obj 1165 600 s peakS;
#X obj 208 156 r peakS;
#X msg 372 178 300;
#X obj 364 232 * 20;
#X msg 348 275 60 50 0.1 80;
#X msg 357 296 69 40 0.2 70;
#X msg 215 277 10 900 0.1 800;
#X obj 231 234 * 30;
#X text 365 136 compare to history;
#X text 205 135 Peak strength;
#X text 52 137 Dominant peak;
#X obj 497 305 delay 100;
#X msg 69 274 100 800 0.1 10;
#X obj 85 231 * 100;
#X msg 79 295 5 20 0.2 500;
#X obj 56 402 *~ 0.05;
#X obj 107 402 *~ 0.1;
#X msg 335 178 1000;
#X floatatom 338 563 5 0 0 0 - - -;
#X floatatom 305 609 5 0 0 0 - - -;
#X obj 337 585 * 20;
#X obj 208 178 * 100;
#X text 317 632 Try: 1 sing from throat voice to head voice 2 change
between female and male voice 3 shout or not shout;
#X obj 305 585 + 90;
#X text 406 544 overall amp + reverb;
#X text 722 623 Further possible improvements: 1 more conversation
parameters 2 utilize more history data 3 store highest reverb number
4 variablize space parameters 5 tabread only audiable part;
#X text 15 5 Jeannette M - SSI2019 - A Timbre Comversation -;
#X obj 427 402 *~ 0.2;
#X obj 252 403 *~ 0.4;
#X obj 338 402 *~ 0.1;
#X obj 202 403 *~ 0.3;
#X connect 0 0 1 0;
#X connect 1 0 2 0;
#X connect 1 1 12 0;
#X connect 1 2 22 0;
#X connect 1 3 32 0;
#X connect 1 4 42 0;
#X connect 1 5 52 0;
#X connect 1 6 62 0;
#X connect 1 7 72 0;
#X connect 1 8 81 0;
#X connect 1 9 90 0;
#X connect 2 0 9 0;
#X connect 2 0 282 0;
#X connect 2 0 278 0;
#X connect 3 0 4 0;
#X connect 4 0 3 1;
#X connect 4 0 8 0;
#X connect 5 0 7 0;
#X connect 6 0 5 0;
#X connect 7 0 5 1;
#X connect 7 0 8 1;
#X connect 8 0 11 0;
#X connect 9 0 3 0;
#X connect 9 1 6 0;
#X connect 10 0 4 0;
#X connect 10 0 7 0;
#X connect 11 0 282 1;
#X connect 12 0 19 0;
#X connect 13 0 14 0;
#X connect 14 0 13 1;
#X connect 14 0 18 0;
#X connect 15 0 17 0;
#X connect 16 0 15 0;
#X connect 17 0 15 1;
#X connect 17 0 18 1;
#X connect 18 0 21 0;
#X connect 19 0 13 0;
#X connect 19 1 16 0;
#X connect 20 0 14 0;
#X connect 20 0 17 0;
#X connect 22 0 29 0;
#X connect 23 0 24 0;
#X connect 24 0 23 1;
#X connect 24 0 28 0;
#X connect 25 0 27 0;
#X connect 26 0 25 0;
#X connect 27 0 25 1;
#X connect 27 0 28 1;
#X connect 28 0 31 0;
#X connect 29 0 23 0;
#X connect 29 1 26 0;
#X connect 30 0 24 0;
#X connect 30 0 27 0;
#X connect 32 0 39 0;
#X connect 33 0 34 0;
#X connect 34 0 33 1;
#X connect 34 0 38 0;
#X connect 35 0 37 0;
#X connect 36 0 35 0;
#X connect 37 0 35 1;
#X connect 37 0 38 1;
#X connect 38 0 41 0;
#X connect 39 0 33 0;
#X connect 39 1 36 0;
#X connect 40 0 34 0;
#X connect 40 0 37 0;
#X connect 42 0 49 0;
#X connect 43 0 44 0;
#X connect 44 0 43 1;
#X connect 44 0 48 0;
#X connect 45 0 47 0;
#X connect 46 0 45 0;
#X connect 47 0 45 1;
#X connect 47 0 48 1;
#X connect 48 0 51 0;
#X connect 49 0 43 0;
#X connect 49 1 46 0;
#X connect 50 0 44 0;
#X connect 50 0 47 0;
#X connect 52 0 59 0;
#X connect 53 0 54 0;
#X connect 54 0 53 1;
#X connect 54 0 58 0;
#X connect 55 0 57 0;
#X connect 56 0 55 0;
#X connect 57 0 55 1;
#X connect 57 0 58 1;
#X connect 58 0 61 0;
#X connect 59 0 53 0;
#X connect 59 1 56 0;
#X connect 60 0 54 0;
#X connect 60 0 57 0;
#X connect 62 0 69 0;
#X connect 63 0 64 0;
#X connect 64 0 63 1;
#X connect 64 0 68 0;
#X connect 65 0 67 0;
#X connect 66 0 65 0;
#X connect 67 0 65 1;
#X connect 67 0 68 1;
#X connect 68 0 71 0;
#X connect 69 0 63 0;
#X connect 69 1 66 0;
#X connect 70 0 64 0;
#X connect 70 0 67 0;
#X connect 72 0 79 0;
#X connect 73 0 74 0;
#X connect 74 0 73 1;
#X connect 74 0 78 0;
#X connect 75 0 77 0;
#X connect 76 0 75 0;
#X connect 77 0 75 1;
#X connect 77 0 78 1;
#X connect 78 0 100 0;
#X connect 79 0 73 0;
#X connect 79 1 76 0;
#X connect 80 0 74 0;
#X connect 80 0 77 0;
#X connect 81 0 88 0;
#X connect 82 0 83 0;
#X connect 83 0 82 1;
#X connect 83 0 87 0;
#X connect 84 0 86 0;
#X connect 85 0 84 0;
#X connect 86 0 84 1;
#X connect 86 0 87 1;
#X connect 87 0 101 0;
#X connect 88 0 82 0;
#X connect 88 1 85 0;
#X connect 89 0 83 0;
#X connect 89 0 86 0;
#X connect 90 0 97 0;
#X connect 91 0 92 0;
#X connect 92 0 91 1;
#X connect 92 0 96 0;
#X connect 93 0 95 0;
#X connect 94 0 93 0;
#X connect 95 0 93 1;
#X connect 95 0 96 1;
#X connect 96 0 102 0;
#X connect 97 0 91 0;
#X connect 97 1 94 0;
#X connect 98 0 92 0;
#X connect 98 0 95 0;
#X connect 99 0 10 0;
#X connect 99 0 20 0;
#X connect 99 0 30 0;
#X connect 99 0 40 0;
#X connect 99 0 50 0;
#X connect 99 0 60 0;
#X connect 99 0 70 0;
#X connect 99 0 80 0;
#X connect 99 0 89 0;
#X connect 99 0 98 0;
#X connect 103 0 104 0;
#X connect 103 1 114 0;
#X connect 103 2 124 0;
#X connect 103 3 134 0;
#X connect 103 4 144 0;
#X connect 103 5 154 0;
#X connect 103 6 164 0;
#X connect 103 7 174 0;
#X connect 103 8 183 0;
#X connect 103 9 192 0;
#X connect 104 0 111 0;
#X connect 104 0 218 0;
#X connect 105 0 106 0;
#X connect 106 0 105 1;
#X connect 106 0 110 0;
#X connect 107 0 109 0;
#X connect 108 0 107 0;
#X connect 109 0 107 1;
#X connect 109 0 110 1;
#X connect 110 0 113 0;
#X connect 111 0 105 0;
#X connect 111 1 108 0;
#X connect 112 0 106 0;
#X connect 112 0 109 0;
#X connect 112 0 222 0;
#X connect 113 0 214 0;
#X connect 114 0 121 0;
#X connect 114 0 218 0;
#X connect 115 0 116 0;
#X connect 116 0 115 1;
#X connect 116 0 120 0;
#X connect 117 0 119 0;
#X connect 118 0 117 0;
#X connect 119 0 117 1;
#X connect 119 0 120 1;
#X connect 120 0 123 0;
#X connect 121 0 115 0;
#X connect 121 1 118 0;
#X connect 122 0 116 0;
#X connect 122 0 119 0;
#X connect 123 0 213 0;
#X connect 124 0 131 0;
#X connect 124 0 218 0;
#X connect 125 0 126 0;
#X connect 126 0 125 1;
#X connect 126 0 130 0;
#X connect 127 0 129 0;
#X connect 128 0 127 0;
#X connect 129 0 127 1;
#X connect 129 0 130 1;
#X connect 130 0 133 0;
#X connect 131 0 125 0;
#X connect 131 1 128 0;
#X connect 132 0 126 0;
#X connect 132 0 129 0;
#X connect 133 0 212 0;
#X connect 134 0 141 0;
#X connect 134 0 218 0;
#X connect 135 0 136 0;
#X connect 136 0 135 1;
#X connect 136 0 140 0;
#X connect 137 0 139 0;
#X connect 138 0 137 0;
#X connect 139 0 137 1;
#X connect 139 0 140 1;
#X connect 139 0 223 1;
#X connect 140 0 143 0;
#X connect 141 0 135 0;
#X connect 141 1 138 0;
#X connect 142 0 136 0;
#X connect 142 0 139 0;
#X connect 143 0 211 0;
#X connect 144 0 151 0;
#X connect 144 0 218 0;
#X connect 145 0 146 0;
#X connect 146 0 145 1;
#X connect 146 0 150 0;
#X connect 147 0 149 0;
#X connect 148 0 147 0;
#X connect 149 0 147 1;
#X connect 149 0 150 1;
#X connect 150 0 153 0;
#X connect 151 0 145 0;
#X connect 151 1 148 0;
#X connect 152 0 146 0;
#X connect 152 0 149 0;
#X connect 153 0 210 0;
#X connect 154 0 161 0;
#X connect 154 0 218 0;
#X connect 155 0 156 0;
#X connect 156 0 155 1;
#X connect 156 0 160 0;
#X connect 157 0 159 0;
#X connect 158 0 157 0;
#X connect 159 0 157 1;
#X connect 159 0 160 1;
#X connect 160 0 163 0;
#X connect 161 0 155 0;
#X connect 161 1 158 0;
#X connect 162 0 156 0;
#X connect 162 0 159 0;
#X connect 163 0 209 0;
#X connect 164 0 171 0;
#X connect 164 0 218 0;
#X connect 165 0 166 0;
#X connect 166 0 165 1;
#X connect 166 0 170 0;
#X connect 167 0 169 0;
#X connect 168 0 167 0;
#X connect 169 0 167 1;
#X connect 169 0 170 1;
#X connect 170 0 173 0;
#X connect 171 0 165 0;
#X connect 171 1 168 0;
#X connect 172 0 166 0;
#X connect 172 0 169 0;
#X connect 173 0 208 0;
#X connect 174 0 181 0;
#X connect 174 0 218 0;
#X connect 175 0 176 0;
#X connect 176 0 175 1;
#X connect 176 0 180 0;
#X connect 177 0 179 0;
#X connect 178 0 177 0;
#X connect 179 0 177 1;
#X connect 179 0 180 1;
#X connect 180 0 202 0;
#X connect 181 0 175 0;
#X connect 181 1 178 0;
#X connect 182 0 176 0;
#X connect 182 0 179 0;
#X connect 183 0 190 0;
#X connect 183 0 218 0;
#X connect 184 0 185 0;
#X connect 185 0 184 1;
#X connect 185 0 189 0;
#X connect 186 0 188 0;
#X connect 187 0 186 0;
#X connect 188 0 186 1;
#X connect 188 0 189 1;
#X connect 189 0 203 0;
#X connect 190 0 184 0;
#X connect 190 1 187 0;
#X connect 191 0 185 0;
#X connect 191 0 188 0;
#X connect 192 0 199 0;
#X connect 192 0 218 0;
#X connect 193 0 194 0;
#X connect 194 0 193 1;
#X connect 194 0 198 0;
#X connect 195 0 197 0;
#X connect 196 0 195 0;
#X connect 197 0 195 1;
#X connect 197 0 198 1;
#X connect 198 0 204 0;
#X connect 199 0 193 0;
#X connect 199 1 196 0;
#X connect 200 0 194 0;
#X connect 200 0 197 0;
#X connect 201 0 112 0;
#X connect 201 0 122 0;
#X connect 201 0 132 0;
#X connect 201 0 142 0;
#X connect 201 0 152 0;
#X connect 201 0 162 0;
#X connect 201 0 172 0;
#X connect 201 0 182 0;
#X connect 201 0 191 0;
#X connect 201 0 200 0;
#X connect 202 0 207 0;
#X connect 203 0 206 0;
#X connect 204 0 206 1;
#X connect 205 0 103 0;
#X connect 206 0 207 1;
#X connect 207 0 208 1;
#X connect 208 0 209 1;
#X connect 209 0 210 1;
#X connect 210 0 211 1;
#X connect 211 0 212 1;
#X connect 212 0 213 1;
#X connect 213 0 214 1;
#X connect 214 0 215 0;
#X connect 215 0 281 0;
#X connect 218 0 219 0;
#X connect 219 0 221 0;
#X connect 220 0 222 0;
#X connect 221 0 220 0;
#X connect 222 0 220 1;
#X connect 222 0 223 0;
#X connect 223 0 224 0;
#X connect 224 0 288 0;
#X connect 225 0 227 0;
#X connect 226 0 225 0;
#X connect 228 0 229 1;
#X connect 229 0 245 0;
#X connect 230 0 229 0;
#X connect 231 0 230 0;
#X connect 232 0 235 1;
#X connect 233 0 235 0;
#X connect 234 0 300 0;
#X connect 234 0 302 0;
#X connect 235 0 246 0;
#X connect 236 0 237 1;
#X connect 237 0 247 0;
#X connect 238 0 237 0;
#X connect 239 0 238 0;
#X connect 240 0 243 1;
#X connect 241 0 243 0;
#X connect 242 0 294 0;
#X connect 242 0 244 0;
#X connect 243 0 248 0;
#X connect 244 0 240 0;
#X connect 245 0 249 0;
#X connect 246 0 249 0;
#X connect 247 0 250 0;
#X connect 248 0 250 0;
#X connect 249 0 303 0;
#X connect 250 0 318 0;
#X connect 251 0 252 1;
#X connect 252 0 259 0;
#X connect 253 0 252 0;
#X connect 254 0 253 0;
#X connect 255 0 258 1;
#X connect 256 0 258 0;
#X connect 257 0 292 0;
#X connect 257 0 293 0;
#X connect 257 0 299 0;
#X connect 258 0 260 0;
#X connect 259 0 261 0;
#X connect 260 0 261 0;
#X connect 261 0 315 0;
#X connect 261 0 317 0;
#X connect 263 0 276 1;
#X connect 265 0 277 1;
#X connect 267 0 265 0;
#X connect 268 0 263 0;
#X connect 271 0 316 0;
#X connect 272 0 286 0;
#X connect 273 0 304 0;
#X connect 274 0 269 0;
#X connect 274 1 269 1;
#X connect 274 2 269 2;
#X connect 274 3 269 3;
#X connect 275 0 270 0;
#X connect 275 1 270 1;
#X connect 275 2 270 2;
#X connect 275 3 270 3;
#X connect 276 0 264 0;
#X connect 276 1 264 1;
#X connect 276 2 264 2;
#X connect 276 3 264 3;
#X connect 277 0 266 0;
#X connect 277 1 266 1;
#X connect 277 2 266 2;
#X connect 277 3 266 3;
#X connect 278 0 231 0;
#X connect 278 0 234 0;
#X connect 278 0 301 0;
#X connect 279 0 239 0;
#X connect 279 0 242 0;
#X connect 279 0 295 0;
#X connect 280 0 254 0;
#X connect 280 0 257 0;
#X connect 280 0 291 0;
#X connect 282 0 283 0;
#X connect 282 0 284 0;
#X connect 283 0 305 0;
#X connect 284 0 290 0;
#X connect 286 0 262 0;
#X connect 286 1 262 1;
#X connect 286 2 262 2;
#X connect 286 3 262 3;
#X connect 287 0 306 0;
#X connect 289 0 309 0;
#X connect 290 0 280 0;
#X connect 291 0 256 0;
#X connect 292 0 251 0;
#X connect 293 0 255 0;
#X connect 294 0 236 0;
#X connect 295 0 241 0;
#X connect 299 0 201 0;
#X connect 300 0 228 0;
#X connect 301 0 233 0;
#X connect 302 0 232 0;
#X connect 303 0 274 0;
#X connect 303 0 286 0;
#X connect 304 0 274 1;
#X connect 305 0 280 0;
#X connect 306 0 308 0;
#X connect 308 0 311 0;
#X connect 309 0 279 0;
#X connect 311 0 286 2;
#X connect 311 0 307 0;
#X connect 315 0 277 0;
#X connect 315 0 286 0;
#X connect 316 0 275 1;
#X connect 317 0 276 0;
#X connect 318 0 272 0;
#X connect 318 0 275 0;
