#N canvas 28 240 1412 638 10;
#X msg 52 95 open bgm1.wav;
#X msg 23 94 1;
#X obj 23 56 bng 15 250 50 0 empty empty empty 17 7 0 10 -262144 -1
-1;
#X obj 22 75 t b b;
#X obj 21 115 readsf~ 1;
#X obj 21 134 *~;
#X msg 148 95 1;
#X obj 148 57 bng 15 250 50 0 empty empty empty 17 7 0 10 -262144 -1
-1;
#X obj 148 76 t b b;
#X obj 148 115 readsf~ 1;
#X obj 148 134 *~;
#X msg 276 97 1;
#X obj 275 59 bng 15 250 50 0 empty empty empty 17 7 0 10 -262144 -1
-1;
#X obj 275 79 t b b;
#X obj 276 115 readsf~ 1;
#X obj 276 134 *~;
#X msg 403 96 1;
#X obj 403 59 bng 15 250 50 0 empty empty empty 17 7 0 10 -262144 -1
-1;
#X obj 403 77 t b b;
#X obj 403 115 readsf~ 1;
#X obj 403 134 *~;
#X msg 528 96 1;
#X obj 527 56 bng 15 250 50 0 empty empty empty 17 7 0 10 -262144 -1
-1;
#X obj 527 75 t b b;
#X obj 528 115 readsf~ 1;
#X obj 528 134 *~;
#X msg 655 96 1;
#X obj 655 59 bng 15 250 50 0 empty empty empty 17 7 0 10 -262144 -1
-1;
#X obj 655 77 t b b;
#X obj 655 115 readsf~ 1;
#X obj 655 134 *~;
#X msg 783 96 1;
#X obj 782 57 bng 15 250 50 0 empty empty empty 17 7 0 10 -262144 -1
-1;
#X obj 783 76 t b b;
#X obj 783 115 readsf~ 1;
#X obj 783 134 *~;
#X msg 910 96 1;
#X obj 910 59 bng 15 250 50 0 empty empty empty 17 7 0 10 -262144 -1
-1;
#X obj 910 76 t b b;
#X obj 910 115 readsf~ 1;
#X obj 910 134 *~;
#X msg 1034 96 1;
#X obj 1032 61 bng 15 250 50 0 empty empty empty 17 7 0 10 -262144
-1 -1;
#X obj 1032 78 t b b;
#X obj 1034 115 readsf~ 1;
#X obj 1034 134 *~;
#X msg 1161 96 1;
#X obj 1161 61 bng 15 250 50 0 empty empty empty 17 7 0 10 -262144
-1 -1;
#X obj 1161 78 t b b;
#X obj 1161 115 readsf~ 1;
#X obj 1161 134 *~;
#X msg 180 95 open bgm2.wav;
#X msg 307 98 open bgm3.wav;
#X msg 431 97 open bgm4.wav;
#X msg 558 97 open bgm5.wav;
#X msg 687 96 open bgm6.wav;
#X msg 814 96 open bgm7.wav;
#X msg 939 96 open bgm8.wav;
#X msg 1064 96 open bgm9.wav;
#X msg 1188 96 open bgm10.wav;
#X obj 23 7 bng 25 250 50 0 empty empty empty 17 7 0 10 -232576 -1
-1;
#X msg 1286 96 1;
#X obj 1284 60 bng 15 250 50 0 empty empty empty 17 7 0 10 -262144
-1 -1;
#X obj 1285 77 t b b;
#X obj 1286 115 readsf~ 1;
#X obj 1286 134 *~;
#X msg 1316 96 open bgm.wav;
#X floatatom 302 134 5 0 0 0 - - -;
#X floatatom 429 134 5 0 0 0 - - -;
#X floatatom 554 134 5 0 0 0 - - -;
#X floatatom 681 134 5 0 0 0 - - -;
#X floatatom 809 134 5 0 0 0 - - -;
#X floatatom 936 134 5 0 0 0 - - -;
#X floatatom 1060 134 5 0 0 0 - - -;
#X floatatom 1187 134 5 0 0 0 - - -;
#X floatatom 47 134 5 0 0 0 - - -;
#X floatatom 174 134 5 0 0 0 - - -;
#X floatatom 1312 134 5 0 0 0 - - -;
#X obj 462 6 bng 20 250 50 0 empty empty empty 17 7 0 10 -228856 -1
-1;
#X msg 508 11 0;
#X obj 1256 26 bgmConnect;
#X obj 266 182 r volume;
#X obj 324 182 unpack f f f f f f f f f f f f f f f f f f f f f f;
#X floatatom 324 206 5 0 0 0 - - -;
#X floatatom 369 206 5 0 0 0 - - -;
#X floatatom 409 206 5 0 0 0 - - -;
#X floatatom 454 206 5 0 0 0 - - -;
#X floatatom 495 206 5 0 0 0 - - -;
#X floatatom 540 206 5 0 0 0 - - -;
#X floatatom 580 206 5 0 0 0 - - -;
#X floatatom 621 206 5 0 0 0 - - -;
#X floatatom 669 206 5 0 0 0 - - -;
#X floatatom 714 206 5 0 0 0 - - -;
#X floatatom 754 206 5 0 0 0 - - -;
#X floatatom 799 206 5 0 0 0 - - -;
#X floatatom 840 206 5 0 0 0 - - -;
#X floatatom 885 206 5 0 0 0 - - -;
#X floatatom 925 206 5 0 0 0 - - -;
#X floatatom 970 206 5 0 0 0 - - -;
#X floatatom 1018 206 5 0 0 0 - - -;
#X floatatom 1063 206 5 0 0 0 - - -;
#X floatatom 1103 206 5 0 0 0 - - -;
#X floatatom 1148 206 5 0 0 0 - - -;
#X floatatom 1189 206 5 0 0 0 - - -;
#X floatatom 1234 206 5 0 0 0 - - -;
#X obj 21 176 +~;
#X obj 21 211 dac~ 1 2;
#X msg 41 296 1;
#X obj 41 258 bng 15 250 50 0 empty empty empty 17 7 0 10 -262144 -1
-1;
#X obj 40 277 t b b;
#X obj 39 317 readsf~ 1;
#X obj 39 336 *~;
#X floatatom 65 336 5 0 0 0 - - -;
#X msg 70 297 open sounds/1bird.wav;
#X msg 41 405 1;
#X obj 41 367 bng 15 250 50 0 empty empty empty 17 7 0 10 -262144 -1
-1;
#X obj 40 386 t b b;
#X obj 39 426 readsf~ 1;
#X obj 39 445 *~;
#X floatatom 65 445 5 0 0 0 - - -;
#X msg 70 406 open sounds/1bird.wav;
#X msg 211 297 1;
#X obj 211 259 bng 15 250 50 0 empty empty empty 17 7 0 10 -262144
-1 -1;
#X obj 210 278 t b b;
#X obj 209 318 readsf~ 1;
#X obj 209 337 *~;
#X floatatom 235 337 5 0 0 0 - - -;
#X msg 211 406 1;
#X obj 211 368 bng 15 250 50 0 empty empty empty 17 7 0 10 -262144
-1 -1;
#X obj 210 387 t b b;
#X obj 209 427 readsf~ 1;
#X obj 209 446 *~;
#X floatatom 235 446 5 0 0 0 - - -;
#X msg 240 298 open sounds/2flag.wav;
#X msg 240 407 open sounds/2river.wav;
#X msg 385 298 1;
#X obj 385 260 bng 15 250 50 0 empty empty empty 17 7 0 10 -262144
-1 -1;
#X obj 384 279 t b b;
#X obj 383 319 readsf~ 1;
#X obj 383 338 *~;
#X floatatom 409 338 5 0 0 0 - - -;
#X msg 385 407 1;
#X obj 385 369 bng 15 250 50 0 empty empty empty 17 7 0 10 -262144
-1 -1;
#X obj 384 388 t b b;
#X obj 383 428 readsf~ 1;
#X obj 383 447 *~;
#X floatatom 409 447 5 0 0 0 - - -;
#X msg 554 299 1;
#X obj 554 261 bng 15 250 50 0 empty empty empty 17 7 0 10 -262144
-1 -1;
#X obj 553 280 t b b;
#X obj 552 320 readsf~ 1;
#X obj 552 339 *~;
#X floatatom 578 339 5 0 0 0 - - -;
#X msg 554 408 1;
#X obj 554 370 bng 15 250 50 0 empty empty empty 17 7 0 10 -262144
-1 -1;
#X obj 553 389 t b b;
#X obj 552 429 readsf~ 1;
#X obj 552 448 *~;
#X floatatom 578 448 5 0 0 0 - - -;
#X msg 728 300 1;
#X obj 728 262 bng 15 250 50 0 empty empty empty 17 7 0 10 -262144
-1 -1;
#X obj 727 281 t b b;
#X obj 726 321 readsf~ 1;
#X obj 726 340 *~;
#X floatatom 752 340 5 0 0 0 - - -;
#X msg 728 409 1;
#X obj 728 371 bng 15 250 50 0 empty empty empty 17 7 0 10 -262144
-1 -1;
#X obj 727 390 t b b;
#X obj 726 430 readsf~ 1;
#X obj 726 449 *~;
#X floatatom 752 449 5 0 0 0 - - -;
#X msg 898 301 1;
#X obj 898 263 bng 15 250 50 0 empty empty empty 17 7 0 10 -262144
-1 -1;
#X obj 897 282 t b b;
#X obj 896 322 readsf~ 1;
#X obj 896 341 *~;
#X floatatom 922 341 5 0 0 0 - - -;
#X msg 898 410 1;
#X obj 898 372 bng 15 250 50 0 empty empty empty 17 7 0 10 -262144
-1 -1;
#X obj 897 391 t b b;
#X obj 896 431 readsf~ 1;
#X obj 896 450 *~;
#X floatatom 922 450 5 0 0 0 - - -;
#X msg 1072 302 1;
#X obj 1072 264 bng 15 250 50 0 empty empty empty 17 7 0 10 -262144
-1 -1;
#X obj 1071 283 t b b;
#X obj 1070 323 readsf~ 1;
#X obj 1070 342 *~;
#X floatatom 1096 342 5 0 0 0 - - -;
#X msg 1072 411 1;
#X obj 1072 373 bng 15 250 50 0 empty empty empty 17 7 0 10 -262144
-1 -1;
#X obj 1071 392 t b b;
#X obj 1070 432 readsf~ 1;
#X obj 1070 451 *~;
#X floatatom 1096 451 5 0 0 0 - - -;
#X msg 1241 303 1;
#X obj 1241 265 bng 15 250 50 0 empty empty empty 17 7 0 10 -262144
-1 -1;
#X obj 1240 284 t b b;
#X obj 1239 324 readsf~ 1;
#X obj 1239 343 *~;
#X floatatom 1265 343 5 0 0 0 - - -;
#X msg 1241 412 1;
#X obj 1241 374 bng 15 250 50 0 empty empty empty 17 7 0 10 -262144
-1 -1;
#X obj 1240 393 t b b;
#X obj 1239 433 readsf~ 1;
#X obj 1239 452 *~;
#X floatatom 1265 452 5 0 0 0 - - -;
#X msg 41 516 1;
#X obj 41 478 bng 15 250 50 0 empty empty empty 17 7 0 10 -262144 -1
-1;
#X obj 40 497 t b b;
#X obj 39 537 readsf~ 1;
#X obj 39 556 *~;
#X floatatom 65 556 5 0 0 0 - - -;
#X msg 215 517 1;
#X obj 215 479 bng 15 250 50 0 empty empty empty 17 7 0 10 -262144
-1 -1;
#X obj 214 498 t b b;
#X obj 213 538 readsf~ 1;
#X obj 213 557 *~;
#X floatatom 239 557 5 0 0 0 - - -;
#X msg 384 518 1;
#X obj 384 480 bng 15 250 50 0 empty empty empty 17 7 0 10 -262144
-1 -1;
#X obj 383 499 t b b;
#X obj 382 539 readsf~ 1;
#X obj 382 558 *~;
#X floatatom 408 558 5 0 0 0 - - -;
#X msg 558 519 1;
#X obj 558 481 bng 15 250 50 0 empty empty empty 17 7 0 10 -262144
-1 -1;
#X obj 557 500 t b b;
#X obj 556 540 readsf~ 1;
#X obj 556 559 *~;
#X floatatom 582 559 5 0 0 0 - - -;
#X msg 414 299 open sounds/3mosquito.wav;
#X msg 414 408 open sounds/3thunder.wav;
#X msg 583 300 open sounds/4fish.wav;
#X msg 583 409 open sounds/4rain.wav;
#X msg 757 301 open sounds/5flowers.wav;
#X msg 757 410 open sounds/5screw.wav;
#X msg 727 521 1;
#X obj 727 483 bng 15 250 50 0 empty empty empty 17 7 0 10 -262144
-1 -1;
#X obj 726 502 t b b;
#X obj 725 542 readsf~ 1;
#X obj 725 561 *~;
#X floatatom 751 561 5 0 0 0 - - -;
#X msg 757 522 open sounds/5traffic.wav;
#X msg 927 302 open sounds/6boil.wav;
#X msg 928 411 open sounds/6cabinet.wav;
#X msg 898 521 1;
#X obj 898 483 bng 15 250 50 0 empty empty empty 17 7 0 10 -262144
-1 -1;
#X obj 897 502 t b b;
#X obj 896 542 readsf~ 1;
#X obj 896 561 *~;
#X floatatom 922 561 5 0 0 0 - - -;
#X msg 927 522 open sounds/6tools.wav;
#X msg 1101 303 open sounds/7machine.wav;
#X msg 1101 412 open sounds/7radar.wav;
#X msg 1270 304 open sounds/8star.wav;
#X msg 1270 413 open sounds/8wolf.wav;
#X msg 70 517 open sounds/9gas.wav;
#X msg 244 518 open sounds/9oven.wav;
#X msg 413 519 open sounds/10fire.wav;
#X msg 587 520 open sounds/10liquid.wav;
#X text 806 186 n1, f 3;
#X text 1233 191 mute;
#X text 404 9 stop all;
#X text 54 10 <- start;
#X obj 38 594 +~;
#X obj 103 600 dac~ 1 2;
#X obj 245 5 loadbang;
#X obj 21 193 *~;
#X obj 74 600 *~;
#X connect 0 0 4 0;
#X connect 1 0 4 0;
#X connect 2 0 3 0;
#X connect 3 0 1 0;
#X connect 3 1 0 0;
#X connect 4 0 5 0;
#X connect 4 1 2 0;
#X connect 5 0 105 0;
#X connect 6 0 9 0;
#X connect 7 0 8 0;
#X connect 8 0 6 0;
#X connect 8 1 51 0;
#X connect 9 0 10 0;
#X connect 9 1 7 0;
#X connect 10 0 105 0;
#X connect 11 0 14 0;
#X connect 12 0 13 0;
#X connect 13 0 11 0;
#X connect 13 1 52 0;
#X connect 14 0 15 0;
#X connect 14 1 12 0;
#X connect 15 0 105 0;
#X connect 16 0 19 0;
#X connect 17 0 18 0;
#X connect 18 0 16 0;
#X connect 18 1 53 0;
#X connect 19 0 20 0;
#X connect 19 1 17 0;
#X connect 20 0 105 0;
#X connect 21 0 24 0;
#X connect 22 0 23 0;
#X connect 23 0 21 0;
#X connect 23 1 54 0;
#X connect 24 0 25 0;
#X connect 24 1 22 0;
#X connect 25 0 105 0;
#X connect 26 0 29 0;
#X connect 27 0 28 0;
#X connect 28 0 26 0;
#X connect 28 1 55 0;
#X connect 29 0 30 0;
#X connect 29 1 27 0;
#X connect 30 0 105 0;
#X connect 31 0 34 0;
#X connect 32 0 33 0;
#X connect 33 0 31 0;
#X connect 33 1 56 0;
#X connect 34 0 35 0;
#X connect 34 1 32 0;
#X connect 35 0 105 0;
#X connect 36 0 39 0;
#X connect 37 0 38 0;
#X connect 38 0 36 0;
#X connect 38 1 57 0;
#X connect 39 0 40 0;
#X connect 39 1 37 0;
#X connect 40 0 105 0;
#X connect 41 0 44 0;
#X connect 42 0 43 0;
#X connect 43 0 41 0;
#X connect 43 1 58 0;
#X connect 44 0 45 0;
#X connect 44 1 42 0;
#X connect 45 0 105 0;
#X connect 46 0 49 0;
#X connect 47 0 48 0;
#X connect 48 0 46 0;
#X connect 48 1 59 0;
#X connect 49 0 50 0;
#X connect 49 1 47 0;
#X connect 50 0 105 0;
#X connect 51 0 9 0;
#X connect 52 0 14 0;
#X connect 53 0 19 0;
#X connect 54 0 24 0;
#X connect 55 0 29 0;
#X connect 56 0 34 0;
#X connect 57 0 39 0;
#X connect 58 0 44 0;
#X connect 59 0 49 0;
#X connect 60 0 2 0;
#X connect 60 0 47 0;
#X connect 60 0 42 0;
#X connect 60 0 37 0;
#X connect 60 0 32 0;
#X connect 60 0 27 0;
#X connect 60 0 22 0;
#X connect 60 0 17 0;
#X connect 60 0 12 0;
#X connect 60 0 7 0;
#X connect 60 0 62 0;
#X connect 60 0 108 0;
#X connect 60 0 196 0;
#X connect 60 0 184 0;
#X connect 60 0 172 0;
#X connect 60 0 160 0;
#X connect 60 0 148 0;
#X connect 60 0 136 0;
#X connect 60 0 122 0;
#X connect 60 0 115 0;
#X connect 60 0 202 0;
#X connect 60 0 190 0;
#X connect 60 0 178 0;
#X connect 60 0 166 0;
#X connect 60 0 154 0;
#X connect 60 0 143 0;
#X connect 60 0 142 0;
#X connect 60 0 129 0;
#X connect 60 0 128 0;
#X connect 60 0 116 0;
#X connect 60 0 208 0;
#X connect 60 0 247 0;
#X connect 60 0 238 0;
#X connect 60 0 226 0;
#X connect 60 0 220 0;
#X connect 60 0 214 0;
#X connect 61 0 64 0;
#X connect 62 0 63 0;
#X connect 63 0 61 0;
#X connect 63 1 66 0;
#X connect 64 0 65 0;
#X connect 64 1 62 0;
#X connect 65 0 105 0;
#X connect 66 0 64 0;
#X connect 67 0 15 1;
#X connect 68 0 20 1;
#X connect 69 0 25 1;
#X connect 70 0 30 1;
#X connect 71 0 35 1;
#X connect 72 0 40 1;
#X connect 73 0 45 1;
#X connect 74 0 50 1;
#X connect 75 0 5 1;
#X connect 76 0 10 1;
#X connect 77 0 65 1;
#X connect 78 0 79 0;
#X connect 79 0 19 0;
#X connect 79 0 64 0;
#X connect 79 0 49 0;
#X connect 79 0 44 0;
#X connect 79 0 39 0;
#X connect 79 0 34 0;
#X connect 79 0 29 0;
#X connect 79 0 24 0;
#X connect 79 0 14 0;
#X connect 79 0 9 0;
#X connect 79 0 4 0;
#X connect 79 0 110 0;
#X connect 79 0 198 0;
#X connect 79 0 186 0;
#X connect 79 0 174 0;
#X connect 79 0 162 0;
#X connect 79 0 150 0;
#X connect 79 0 138 0;
#X connect 79 0 124 0;
#X connect 79 0 117 0;
#X connect 79 0 204 0;
#X connect 79 0 192 0;
#X connect 79 0 180 0;
#X connect 79 0 168 0;
#X connect 79 0 156 0;
#X connect 79 0 144 0;
#X connect 79 0 130 0;
#X connect 79 0 210 0;
#X connect 79 0 249 0;
#X connect 79 0 240 0;
#X connect 79 0 228 0;
#X connect 79 0 222 0;
#X connect 79 0 216 0;
#X connect 81 0 82 0;
#X connect 82 0 83 0;
#X connect 82 1 84 0;
#X connect 82 2 85 0;
#X connect 82 3 86 0;
#X connect 82 4 87 0;
#X connect 82 5 88 0;
#X connect 82 6 89 0;
#X connect 82 7 90 0;
#X connect 82 8 91 0;
#X connect 82 9 92 0;
#X connect 82 10 93 0;
#X connect 82 11 94 0;
#X connect 82 12 95 0;
#X connect 82 13 96 0;
#X connect 82 14 97 0;
#X connect 82 15 98 0;
#X connect 82 16 99 0;
#X connect 82 17 100 0;
#X connect 82 18 101 0;
#X connect 82 19 102 0;
#X connect 82 20 103 0;
#X connect 82 21 104 0;
#X connect 83 0 75 0;
#X connect 84 0 76 0;
#X connect 85 0 67 0;
#X connect 86 0 68 0;
#X connect 87 0 69 0;
#X connect 88 0 70 0;
#X connect 89 0 71 0;
#X connect 90 0 72 0;
#X connect 91 0 73 0;
#X connect 92 0 74 0;
#X connect 93 0 77 0;
#X connect 94 0 112 0;
#X connect 94 0 119 0;
#X connect 95 0 126 0;
#X connect 95 0 132 0;
#X connect 96 0 140 0;
#X connect 96 0 146 0;
#X connect 97 0 152 0;
#X connect 97 0 158 0;
#X connect 98 0 164 0;
#X connect 98 0 170 0;
#X connect 98 0 242 0;
#X connect 99 0 176 0;
#X connect 99 0 182 0;
#X connect 99 0 251 0;
#X connect 100 0 188 0;
#X connect 100 0 194 0;
#X connect 101 0 200 0;
#X connect 101 0 206 0;
#X connect 102 0 212 0;
#X connect 102 0 218 0;
#X connect 103 0 224 0;
#X connect 103 0 230 0;
#X connect 104 0 268 1;
#X connect 104 0 269 1;
#X connect 105 0 268 0;
#X connect 107 0 110 0;
#X connect 108 0 109 0;
#X connect 109 0 107 0;
#X connect 109 1 113 0;
#X connect 110 0 111 0;
#X connect 110 1 108 0;
#X connect 111 0 265 0;
#X connect 112 0 111 1;
#X connect 113 0 110 0;
#X connect 114 0 117 0;
#X connect 115 0 116 0;
#X connect 116 0 114 0;
#X connect 116 1 120 0;
#X connect 117 0 118 0;
#X connect 117 1 115 0;
#X connect 118 0 265 0;
#X connect 119 0 118 1;
#X connect 120 0 117 0;
#X connect 121 0 124 0;
#X connect 122 0 123 0;
#X connect 123 0 121 0;
#X connect 123 1 133 0;
#X connect 124 0 125 0;
#X connect 124 1 122 0;
#X connect 125 0 265 0;
#X connect 126 0 125 1;
#X connect 127 0 130 0;
#X connect 128 0 129 0;
#X connect 129 0 127 0;
#X connect 129 1 134 0;
#X connect 130 0 131 0;
#X connect 130 1 128 0;
#X connect 131 0 265 0;
#X connect 132 0 131 1;
#X connect 133 0 124 0;
#X connect 134 0 130 0;
#X connect 135 0 138 0;
#X connect 136 0 137 0;
#X connect 137 0 135 0;
#X connect 137 1 231 0;
#X connect 138 0 139 0;
#X connect 138 1 136 0;
#X connect 139 0 265 0;
#X connect 140 0 139 1;
#X connect 141 0 144 0;
#X connect 142 0 143 0;
#X connect 143 0 141 0;
#X connect 143 1 232 0;
#X connect 144 0 145 0;
#X connect 144 1 142 0;
#X connect 145 0 265 0;
#X connect 146 0 145 1;
#X connect 147 0 150 0;
#X connect 148 0 149 0;
#X connect 149 0 147 0;
#X connect 149 1 233 0;
#X connect 150 0 151 0;
#X connect 150 1 148 0;
#X connect 151 0 265 0;
#X connect 152 0 151 1;
#X connect 153 0 156 0;
#X connect 154 0 155 0;
#X connect 155 0 153 0;
#X connect 155 1 234 0;
#X connect 156 0 157 0;
#X connect 156 1 154 0;
#X connect 157 0 265 0;
#X connect 158 0 157 1;
#X connect 159 0 162 0;
#X connect 160 0 161 0;
#X connect 161 0 159 0;
#X connect 161 1 235 0;
#X connect 162 0 163 0;
#X connect 162 1 160 0;
#X connect 163 0 265 0;
#X connect 164 0 163 1;
#X connect 165 0 168 0;
#X connect 166 0 167 0;
#X connect 167 0 165 0;
#X connect 167 1 236 0;
#X connect 168 0 169 0;
#X connect 168 1 166 0;
#X connect 169 0 265 0;
#X connect 170 0 169 1;
#X connect 171 0 174 0;
#X connect 172 0 173 0;
#X connect 173 0 171 0;
#X connect 173 1 244 0;
#X connect 174 0 175 0;
#X connect 174 1 172 0;
#X connect 175 0 265 0;
#X connect 176 0 175 1;
#X connect 177 0 180 0;
#X connect 178 0 179 0;
#X connect 179 0 177 0;
#X connect 179 1 245 0;
#X connect 180 0 181 0;
#X connect 180 1 178 0;
#X connect 181 0 265 0;
#X connect 182 0 181 1;
#X connect 183 0 186 0;
#X connect 184 0 185 0;
#X connect 185 0 183 0;
#X connect 185 1 253 0;
#X connect 186 0 187 0;
#X connect 186 1 184 0;
#X connect 187 0 265 0;
#X connect 188 0 187 1;
#X connect 189 0 192 0;
#X connect 190 0 191 0;
#X connect 191 0 189 0;
#X connect 191 1 254 0;
#X connect 192 0 193 0;
#X connect 192 1 190 0;
#X connect 193 0 265 0;
#X connect 194 0 193 1;
#X connect 195 0 198 0;
#X connect 196 0 197 0;
#X connect 197 0 195 0;
#X connect 197 1 255 0;
#X connect 198 0 199 0;
#X connect 198 1 196 0;
#X connect 199 0 265 0;
#X connect 200 0 199 1;
#X connect 201 0 204 0;
#X connect 202 0 203 0;
#X connect 203 0 201 0;
#X connect 203 1 256 0;
#X connect 204 0 205 0;
#X connect 204 1 202 0;
#X connect 205 0 265 0;
#X connect 206 0 205 1;
#X connect 207 0 210 0;
#X connect 208 0 209 0;
#X connect 209 0 207 0;
#X connect 209 1 257 0;
#X connect 210 0 211 0;
#X connect 210 1 208 0;
#X connect 211 0 265 0;
#X connect 212 0 211 1;
#X connect 213 0 216 0;
#X connect 214 0 215 0;
#X connect 215 0 213 0;
#X connect 215 1 258 0;
#X connect 216 0 217 0;
#X connect 216 1 214 0;
#X connect 217 0 265 0;
#X connect 218 0 217 1;
#X connect 219 0 222 0;
#X connect 220 0 221 0;
#X connect 221 0 219 0;
#X connect 221 1 259 0;
#X connect 222 0 223 0;
#X connect 222 1 220 0;
#X connect 223 0 265 0;
#X connect 224 0 223 1;
#X connect 225 0 228 0;
#X connect 226 0 227 0;
#X connect 227 0 225 0;
#X connect 227 1 260 0;
#X connect 228 0 229 0;
#X connect 228 1 226 0;
#X connect 229 0 265 0;
#X connect 230 0 229 1;
#X connect 231 0 138 0;
#X connect 232 0 144 0;
#X connect 233 0 150 0;
#X connect 234 0 156 0;
#X connect 235 0 162 0;
#X connect 236 0 168 0;
#X connect 237 0 240 0;
#X connect 238 0 239 0;
#X connect 239 0 237 0;
#X connect 239 1 243 0;
#X connect 240 0 241 0;
#X connect 240 1 238 0;
#X connect 241 0 265 0;
#X connect 242 0 241 1;
#X connect 243 0 240 0;
#X connect 244 0 174 0;
#X connect 245 0 180 0;
#X connect 246 0 249 0;
#X connect 247 0 248 0;
#X connect 248 0 246 0;
#X connect 248 1 252 0;
#X connect 249 0 250 0;
#X connect 249 1 247 0;
#X connect 250 0 265 0;
#X connect 251 0 250 1;
#X connect 252 0 249 0;
#X connect 253 0 186 0;
#X connect 254 0 192 0;
#X connect 255 0 198 0;
#X connect 256 0 204 0;
#X connect 257 0 210 0;
#X connect 258 0 216 0;
#X connect 259 0 222 0;
#X connect 260 0 228 0;
#X connect 265 0 269 0;
#X connect 267 0 60 0;
#X connect 268 0 106 0;
#X connect 268 0 106 1;
#X connect 269 0 266 0;
#X connect 269 0 266 1;
