#N canvas 51 156 1380 466 16;
#X obj 10 11 netreceive -u -b 8000;
#X obj 10 39 mrpeach/unpackOSC;
#X text 10 315 please change IP address in processing sketch;
#X obj 382 250 pack f f f f f f f f f f f f f f f f f f f f f f;
#X obj 9 68 mrpeach/routeOSC /bgm1 /bgm2 /bgm3 /bgm4 /bgm5 /bgm6 /bgm7
/bgm8 /bgm9 /bgm10 /bgm0 /n1 /n2 /n3 /n4 /n5 /n6 /n7 /n8 /n9 /n10 /mute
, f 132;
#X obj 382 282 s volume;
#X connect 0 0 1 0;
#X connect 1 0 4 0;
#X connect 3 0 5 0;
#X connect 4 0 3 0;
#X connect 4 1 3 1;
#X connect 4 2 3 2;
#X connect 4 3 3 3;
#X connect 4 4 3 4;
#X connect 4 5 3 5;
#X connect 4 6 3 6;
#X connect 4 7 3 7;
#X connect 4 8 3 8;
#X connect 4 9 3 9;
#X connect 4 10 3 10;
#X connect 4 11 3 11;
#X connect 4 12 3 12;
#X connect 4 13 3 13;
#X connect 4 14 3 14;
#X connect 4 15 3 15;
#X connect 4 16 3 16;
#X connect 4 17 3 17;
#X connect 4 18 3 18;
#X connect 4 19 3 19;
#X connect 4 20 3 20;
#X connect 4 21 3 21;
