#N canvas 27 23 1413 855 10;
#X obj 235 170 ramp~;
#X obj 270 185 *~;
#X obj 207 170 osc~;
#X obj 84 156 * 1;
#X obj 235 190 ramp~;
#X obj 207 190 osc~;
#X obj 110 137 bng 15 250 50 0 empty empty empty 17 7 0 10 -262144
-1 -1;
#X obj 270 205 *~;
#X obj 234 210 ramp~;
#X obj 206 210 osc~;
#X obj 269 225 *~;
#X obj 234 229 ramp~;
#X obj 206 229 osc~;
#X obj 269 244 *~;
#X obj 234 249 ramp~;
#X obj 206 249 osc~;
#X obj 269 264 *~;
#X obj 234 269 ramp~;
#X obj 206 269 osc~;
#X obj 269 284 *~;
#X obj 234 289 ramp~;
#X obj 206 289 osc~;
#X obj 269 304 *~;
#X floatatom 85 120 5 0 0 0 - - -;
#X obj 83 175 * 2;
#X obj 294 258 *~ 0.01;
#X obj 295 298 *~ 0.032;
#X msg 111 156 50 500 0.1 800;
#X msg 110 175 40 400 0.2 700;
#X msg 110 195 30 70 0.2 500;
#X obj 82 274 * 90;
#X obj 81 255 * 80;
#X obj 82 234 * 60;
#X obj 83 215 * 20;
#X obj 82 196 * 4;
#X obj 295 278 *~ 0.03;
#X msg 109 273 500 30 0.2 55;
#X msg 110 254 600 55 0.2 88;
#X msg 110 234 200 60 0.2 90;
#X msg 110 214 50 65 0.2 120;
#X obj 295 219 *~ 0.3;
#X obj 296 199 *~ 0.3;
#X obj 294 239 *~ 0.2;
#X obj 295 318 *~ 0.05;
#X obj 97 76 inlet;
#X obj 296 340 outlet~;
#X obj 529 170 ramp~;
#X obj 564 185 *~;
#X obj 501 170 osc~;
#X obj 378 156 * 1;
#X obj 529 190 ramp~;
#X obj 501 190 osc~;
#X obj 404 137 bng 15 250 50 0 empty empty empty 17 7 0 10 -262144
-1 -1;
#X obj 564 205 *~;
#X obj 528 210 ramp~;
#X obj 500 210 osc~;
#X obj 563 225 *~;
#X obj 528 229 ramp~;
#X obj 500 229 osc~;
#X obj 563 244 *~;
#X obj 528 249 ramp~;
#X obj 500 249 osc~;
#X obj 563 264 *~;
#X obj 528 269 ramp~;
#X obj 500 269 osc~;
#X obj 563 284 *~;
#X obj 528 289 ramp~;
#X obj 500 289 osc~;
#X obj 563 304 *~;
#X floatatom 379 120 5 0 0 0 - - -;
#X obj 377 175 * 2;
#X obj 588 258 *~ 0.01;
#X obj 589 298 *~ 0.032;
#X msg 405 156 50 500 0.1 800;
#X msg 404 175 40 400 0.2 700;
#X msg 404 195 30 70 0.2 500;
#X obj 376 274 * 90;
#X obj 375 255 * 80;
#X obj 376 234 * 60;
#X obj 377 215 * 20;
#X obj 376 196 * 4;
#X obj 589 278 *~ 0.03;
#X msg 403 273 500 30 0.2 55;
#X msg 404 254 600 55 0.2 88;
#X msg 404 234 200 60 0.2 90;
#X msg 404 214 50 65 0.2 120;
#X obj 589 219 *~ 0.3;
#X obj 590 199 *~ 0.3;
#X obj 588 239 *~ 0.2;
#X obj 589 318 *~ 0.05;
#X obj 391 76 inlet;
#X obj 590 340 outlet~;
#X text 94 46 S;
#X text 388 46 A;
#X obj 826 177 ramp~;
#X obj 861 192 *~;
#X obj 798 177 osc~;
#X obj 675 163 * 1;
#X obj 826 197 ramp~;
#X obj 798 197 osc~;
#X obj 701 144 bng 15 250 50 0 empty empty empty 17 7 0 10 -262144
-1 -1;
#X obj 861 212 *~;
#X obj 825 217 ramp~;
#X obj 797 217 osc~;
#X obj 860 232 *~;
#X obj 825 236 ramp~;
#X obj 797 236 osc~;
#X obj 860 251 *~;
#X obj 825 256 ramp~;
#X obj 797 256 osc~;
#X obj 860 271 *~;
#X obj 825 276 ramp~;
#X obj 797 276 osc~;
#X obj 860 291 *~;
#X obj 825 296 ramp~;
#X obj 797 296 osc~;
#X obj 860 311 *~;
#X floatatom 676 127 5 0 0 0 - - -;
#X obj 674 182 * 2;
#X obj 885 265 *~ 0.01;
#X obj 886 305 *~ 0.032;
#X msg 702 163 50 500 0.1 800;
#X msg 701 182 40 400 0.2 700;
#X msg 701 202 30 70 0.2 500;
#X obj 673 281 * 90;
#X obj 672 262 * 80;
#X obj 673 241 * 60;
#X obj 674 222 * 20;
#X obj 673 203 * 4;
#X obj 886 285 *~ 0.03;
#X msg 700 280 500 30 0.2 55;
#X msg 701 261 600 55 0.2 88;
#X msg 701 241 200 60 0.2 90;
#X msg 701 221 50 65 0.2 120;
#X obj 886 226 *~ 0.3;
#X obj 887 206 *~ 0.3;
#X obj 885 246 *~ 0.2;
#X obj 886 325 *~ 0.05;
#X obj 688 83 inlet;
#X obj 887 347 outlet~;
#X obj 1120 177 ramp~;
#X obj 1155 192 *~;
#X obj 1092 177 osc~;
#X obj 969 163 * 1;
#X obj 1120 197 ramp~;
#X obj 1092 197 osc~;
#X obj 995 144 bng 15 250 50 0 empty empty empty 17 7 0 10 -262144
-1 -1;
#X obj 1155 212 *~;
#X obj 1119 217 ramp~;
#X obj 1091 217 osc~;
#X obj 1154 232 *~;
#X obj 1119 236 ramp~;
#X obj 1091 236 osc~;
#X obj 1154 251 *~;
#X obj 1119 256 ramp~;
#X obj 1091 256 osc~;
#X obj 1154 271 *~;
#X obj 1119 276 ramp~;
#X obj 1091 276 osc~;
#X obj 1154 291 *~;
#X obj 1119 296 ramp~;
#X obj 1091 296 osc~;
#X obj 1154 311 *~;
#X floatatom 970 127 5 0 0 0 - - -;
#X obj 968 182 * 2;
#X obj 1179 265 *~ 0.01;
#X obj 1180 305 *~ 0.032;
#X msg 996 163 50 500 0.1 800;
#X msg 995 182 40 400 0.2 700;
#X msg 995 202 30 70 0.2 500;
#X obj 967 281 * 90;
#X obj 966 262 * 80;
#X obj 967 241 * 60;
#X obj 968 222 * 20;
#X obj 967 203 * 4;
#X obj 1180 285 *~ 0.03;
#X msg 994 280 500 30 0.2 55;
#X msg 995 261 600 55 0.2 88;
#X msg 995 241 200 60 0.2 90;
#X msg 995 221 50 65 0.2 120;
#X obj 1180 226 *~ 0.3;
#X obj 1181 206 *~ 0.3;
#X obj 1179 246 *~ 0.2;
#X obj 1180 325 *~ 0.05;
#X obj 982 83 inlet;
#X obj 1181 347 outlet~;
#X text 685 53 T;
#X text 979 53 B;
#X obj 1428 181 ramp~;
#X obj 1463 196 *~;
#X obj 1400 181 osc~;
#X obj 1277 167 * 1;
#X obj 1428 201 ramp~;
#X obj 1400 201 osc~;
#X obj 1303 148 bng 15 250 50 0 empty empty empty 17 7 0 10 -262144
-1 -1;
#X obj 1463 216 *~;
#X obj 1427 221 ramp~;
#X obj 1399 221 osc~;
#X obj 1462 236 *~;
#X obj 1427 240 ramp~;
#X obj 1399 240 osc~;
#X obj 1462 255 *~;
#X obj 1427 260 ramp~;
#X obj 1399 260 osc~;
#X obj 1462 275 *~;
#X obj 1427 280 ramp~;
#X obj 1399 280 osc~;
#X obj 1462 295 *~;
#X obj 1427 300 ramp~;
#X obj 1399 300 osc~;
#X obj 1462 315 *~;
#X floatatom 1278 131 5 0 0 0 - - -;
#X obj 1276 186 * 2;
#X obj 1487 269 *~ 0.01;
#X obj 1488 309 *~ 0.032;
#X msg 1304 167 50 500 0.1 800;
#X msg 1303 186 40 400 0.2 700;
#X msg 1303 206 30 70 0.2 500;
#X obj 1275 285 * 90;
#X obj 1274 266 * 80;
#X obj 1275 245 * 60;
#X obj 1276 226 * 20;
#X obj 1275 207 * 4;
#X obj 1488 289 *~ 0.03;
#X msg 1302 284 500 30 0.2 55;
#X msg 1303 265 600 55 0.2 88;
#X msg 1303 245 200 60 0.2 90;
#X msg 1303 225 50 65 0.2 120;
#X obj 1488 230 *~ 0.3;
#X obj 1489 210 *~ 0.3;
#X obj 1487 250 *~ 0.2;
#X obj 1488 329 *~ 0.05;
#X obj 1290 87 inlet;
#X obj 1489 351 outlet~;
#X obj 1722 181 ramp~;
#X obj 1757 196 *~;
#X obj 1694 181 osc~;
#X obj 1571 167 * 1;
#X obj 1722 201 ramp~;
#X obj 1694 201 osc~;
#X obj 1597 148 bng 15 250 50 0 empty empty empty 17 7 0 10 -262144
-1 -1;
#X obj 1757 216 *~;
#X obj 1721 221 ramp~;
#X obj 1693 221 osc~;
#X obj 1756 236 *~;
#X obj 1721 240 ramp~;
#X obj 1693 240 osc~;
#X obj 1756 255 *~;
#X obj 1721 260 ramp~;
#X obj 1693 260 osc~;
#X obj 1756 275 *~;
#X obj 1721 280 ramp~;
#X obj 1693 280 osc~;
#X obj 1756 295 *~;
#X obj 1721 300 ramp~;
#X obj 1693 300 osc~;
#X obj 1756 315 *~;
#X floatatom 1572 131 5 0 0 0 - - -;
#X obj 1570 186 * 2;
#X obj 1781 269 *~ 0.01;
#X obj 1782 309 *~ 0.032;
#X msg 1598 167 50 500 0.1 800;
#X msg 1597 186 40 400 0.2 700;
#X msg 1597 206 30 70 0.2 500;
#X obj 1569 285 * 90;
#X obj 1568 266 * 80;
#X obj 1569 245 * 60;
#X obj 1570 226 * 20;
#X obj 1569 207 * 4;
#X obj 1782 289 *~ 0.03;
#X msg 1596 284 500 30 0.2 55;
#X msg 1597 265 600 55 0.2 88;
#X msg 1597 245 200 60 0.2 90;
#X msg 1597 225 50 65 0.2 120;
#X obj 1782 230 *~ 0.3;
#X obj 1783 210 *~ 0.3;
#X obj 1781 250 *~ 0.2;
#X obj 1782 329 *~ 0.05;
#X obj 1584 87 inlet;
#X obj 1783 351 outlet~;
#X obj 2019 188 ramp~;
#X obj 2054 203 *~;
#X obj 1991 188 osc~;
#X obj 1868 174 * 1;
#X obj 2019 208 ramp~;
#X obj 1991 208 osc~;
#X obj 1894 155 bng 15 250 50 0 empty empty empty 17 7 0 10 -262144
-1 -1;
#X obj 2054 223 *~;
#X obj 2018 228 ramp~;
#X obj 1990 228 osc~;
#X obj 2053 243 *~;
#X obj 2018 247 ramp~;
#X obj 1990 247 osc~;
#X obj 2053 262 *~;
#X obj 2018 267 ramp~;
#X obj 1990 267 osc~;
#X obj 2053 282 *~;
#X obj 2018 287 ramp~;
#X obj 1990 287 osc~;
#X obj 2053 302 *~;
#X obj 2018 307 ramp~;
#X obj 1990 307 osc~;
#X obj 2053 322 *~;
#X floatatom 1869 138 5 0 0 0 - - -;
#X obj 1867 193 * 2;
#X obj 2078 276 *~ 0.01;
#X obj 2079 316 *~ 0.032;
#X msg 1895 174 50 500 0.1 800;
#X msg 1894 193 40 400 0.2 700;
#X msg 1894 213 30 70 0.2 500;
#X obj 1866 292 * 90;
#X obj 1865 273 * 80;
#X obj 1866 252 * 60;
#X obj 1867 233 * 20;
#X obj 1866 214 * 4;
#X obj 2079 296 *~ 0.03;
#X msg 1893 291 500 30 0.2 55;
#X msg 1894 272 600 55 0.2 88;
#X msg 1894 252 200 60 0.2 90;
#X msg 1894 232 50 65 0.2 120;
#X obj 2079 237 *~ 0.3;
#X obj 2080 217 *~ 0.3;
#X obj 2078 257 *~ 0.2;
#X obj 2079 336 *~ 0.05;
#X obj 1881 94 inlet;
#X obj 2080 358 outlet~;
#X obj 2313 188 ramp~;
#X obj 2348 203 *~;
#X obj 2285 188 osc~;
#X obj 2162 174 * 1;
#X obj 2313 208 ramp~;
#X obj 2285 208 osc~;
#X obj 2188 155 bng 15 250 50 0 empty empty empty 17 7 0 10 -262144
-1 -1;
#X obj 2348 223 *~;
#X obj 2312 228 ramp~;
#X obj 2284 228 osc~;
#X obj 2347 243 *~;
#X obj 2312 247 ramp~;
#X obj 2284 247 osc~;
#X obj 2347 262 *~;
#X obj 2312 267 ramp~;
#X obj 2284 267 osc~;
#X obj 2347 282 *~;
#X obj 2312 287 ramp~;
#X obj 2284 287 osc~;
#X obj 2347 302 *~;
#X obj 2312 307 ramp~;
#X obj 2284 307 osc~;
#X obj 2347 322 *~;
#X floatatom 2163 138 5 0 0 0 - - -;
#X obj 2161 193 * 2;
#X obj 2372 276 *~ 0.01;
#X obj 2373 316 *~ 0.032;
#X msg 2189 174 50 500 0.1 800;
#X msg 2188 193 40 400 0.2 700;
#X msg 2188 213 30 70 0.2 500;
#X obj 2160 292 * 90;
#X obj 2159 273 * 80;
#X obj 2160 252 * 60;
#X obj 2161 233 * 20;
#X obj 2160 214 * 4;
#X obj 2373 296 *~ 0.03;
#X msg 2187 291 500 30 0.2 55;
#X msg 2188 272 600 55 0.2 88;
#X msg 2188 252 200 60 0.2 90;
#X msg 2188 232 50 65 0.2 120;
#X obj 2373 237 *~ 0.3;
#X obj 2374 217 *~ 0.3;
#X obj 2372 257 *~ 0.2;
#X obj 2373 336 *~ 0.05;
#X obj 2175 94 inlet;
#X obj 2374 358 outlet~;
#X text 1287 57 P1;
#X text 1581 57 P2;
#X text 1878 64 P3;
#X text 2172 64 P4;
#X obj 77 378 bng 15 250 50 0 empty empty empty 17 7 0 10 -262144 -1
-1;
#X obj 77 400 cyclone/seq s.mid;
#X obj 77 446 unpack;
#X obj 77 467 nbx 3 14 -1e+37 1e+37 0 0 empty empty empty 0 -8 0 10
-228856 -1 -1 65 256;
#X obj 129 460 nbx 3 14 -1e+37 1e+37 0 0 empty empty empty 0 -8 0 10
-228856 -1 -1 0 256;
#X obj 77 422 cyclone/midiparse @hires 2;
#X obj 77 485 mtof;
#X obj 299 564 ramp~;
#X obj 334 579 *~;
#X obj 271 564 osc~;
#X obj 75 547 * 1;
#X obj 299 584 ramp~;
#X obj 271 584 osc~;
#X obj 174 531 bng 15 250 50 0 empty empty empty 17 7 0 10 -262144
-1 -1;
#X obj 334 599 *~;
#X obj 298 604 ramp~;
#X obj 270 604 osc~;
#X obj 333 619 *~;
#X obj 298 623 ramp~;
#X obj 270 623 osc~;
#X obj 333 638 *~;
#X obj 298 643 ramp~;
#X obj 270 643 osc~;
#X obj 333 658 *~;
#X obj 298 663 ramp~;
#X obj 270 663 osc~;
#X obj 333 678 *~;
#X obj 298 683 ramp~;
#X obj 270 683 osc~;
#X obj 333 698 *~;
#X floatatom 76 511 5 0 0 0 - - -;
#X obj 74 566 * 2;
#X msg 174 589 30 70 0.2 500;
#X msg 173 667 500 30 0.2 55;
#X msg 174 648 600 55 0.2 88;
#X msg 174 628 200 60 0.2 90;
#X msg 174 608 50 65 0.2 120;
#X obj 349 767 dac~ 1 2;
#X obj 358 744 +~;
#X msg 175 550 5 500 0.1 800;
#X msg 174 569 4 400 0.2 700;
#X obj 597 547 pique;
#X obj 708 564 rfft~;
#X obj 703 598 tabwrite~ bird;
#N canvas 0 22 450 278 (subpatch) 0;
#X array bird 100 float 3;
#A 0 0 0 0 0 0 0 0 0 0 0 0 0 0 0 0 0 0 0 0 0 0 0 0 0 0 0 0 0 0 0 0
0 0 0 0 0 0 0 0 0 0 0 0 0 0 0 0 0 0 0 0 0 0 0 0 0 0 0 0 0 0 0 0 0 0
0 0 0 0 0 0 0 0 0 0 0 0 0 0 0 0 0 0 0 0 0 0 0 0 0 0 0 0 0 0 0 0 0 0
0;
#X coords 0 1 100 -1 200 140 1;
#X restore 923 562 graph;
#X msg 701 537 open sounds/bird2.wav;
#X obj 73 587 * 125;
#X obj 73 625 * 250;
#X obj 73 665 * 500;
#X obj 72 646 * 375;
#X obj 74 606 * 187;
#X obj 360 593 *~ 0.05;
#X obj 359 613 *~ 0.05;
#X obj 358 633 *~ 0.1;
#X obj 358 652 *~ 0.15;
#X obj 359 692 *~ 0.15;
#X obj 359 712 *~ 0.1;
#X obj 359 672 *~ 0.4;
#X connect 0 0 1 1;
#X connect 1 0 41 0;
#X connect 2 0 1 0;
#X connect 3 0 2 0;
#X connect 4 0 7 1;
#X connect 5 0 7 0;
#X connect 6 0 27 0;
#X connect 6 0 28 0;
#X connect 6 0 29 0;
#X connect 6 0 39 0;
#X connect 6 0 38 0;
#X connect 6 0 37 0;
#X connect 6 0 36 0;
#X connect 7 0 40 0;
#X connect 8 0 10 1;
#X connect 9 0 10 0;
#X connect 10 0 42 0;
#X connect 11 0 13 1;
#X connect 12 0 13 0;
#X connect 13 0 25 0;
#X connect 14 0 16 1;
#X connect 15 0 16 0;
#X connect 16 0 35 0;
#X connect 17 0 19 1;
#X connect 18 0 19 0;
#X connect 19 0 26 0;
#X connect 20 0 22 1;
#X connect 21 0 22 0;
#X connect 22 0 43 0;
#X connect 23 0 3 0;
#X connect 23 0 24 0;
#X connect 23 0 30 0;
#X connect 23 0 31 0;
#X connect 23 0 32 0;
#X connect 23 0 33 0;
#X connect 23 0 34 0;
#X connect 24 0 5 0;
#X connect 25 0 45 0;
#X connect 26 0 45 0;
#X connect 27 0 0 0;
#X connect 28 0 4 0;
#X connect 29 0 8 0;
#X connect 30 0 21 0;
#X connect 31 0 18 0;
#X connect 32 0 15 0;
#X connect 33 0 12 0;
#X connect 34 0 9 0;
#X connect 35 0 45 0;
#X connect 36 0 20 0;
#X connect 37 0 17 0;
#X connect 38 0 14 0;
#X connect 39 0 11 0;
#X connect 40 0 45 0;
#X connect 41 0 45 0;
#X connect 42 0 45 0;
#X connect 43 0 45 0;
#X connect 44 0 23 0;
#X connect 44 0 6 0;
#X connect 46 0 47 1;
#X connect 47 0 87 0;
#X connect 48 0 47 0;
#X connect 49 0 48 0;
#X connect 50 0 53 1;
#X connect 51 0 53 0;
#X connect 52 0 73 0;
#X connect 52 0 74 0;
#X connect 52 0 75 0;
#X connect 52 0 85 0;
#X connect 52 0 84 0;
#X connect 52 0 83 0;
#X connect 52 0 82 0;
#X connect 53 0 86 0;
#X connect 54 0 56 1;
#X connect 55 0 56 0;
#X connect 56 0 88 0;
#X connect 57 0 59 1;
#X connect 58 0 59 0;
#X connect 59 0 71 0;
#X connect 60 0 62 1;
#X connect 61 0 62 0;
#X connect 62 0 81 0;
#X connect 63 0 65 1;
#X connect 64 0 65 0;
#X connect 65 0 72 0;
#X connect 66 0 68 1;
#X connect 67 0 68 0;
#X connect 68 0 89 0;
#X connect 69 0 49 0;
#X connect 69 0 70 0;
#X connect 69 0 76 0;
#X connect 69 0 77 0;
#X connect 69 0 78 0;
#X connect 69 0 79 0;
#X connect 69 0 80 0;
#X connect 70 0 51 0;
#X connect 71 0 91 0;
#X connect 72 0 91 0;
#X connect 73 0 46 0;
#X connect 74 0 50 0;
#X connect 75 0 54 0;
#X connect 76 0 67 0;
#X connect 77 0 64 0;
#X connect 78 0 61 0;
#X connect 79 0 58 0;
#X connect 80 0 55 0;
#X connect 81 0 91 0;
#X connect 82 0 66 0;
#X connect 83 0 63 0;
#X connect 84 0 60 0;
#X connect 85 0 57 0;
#X connect 86 0 91 0;
#X connect 87 0 91 0;
#X connect 88 0 91 0;
#X connect 89 0 91 0;
#X connect 90 0 69 0;
#X connect 90 0 52 0;
#X connect 94 0 95 1;
#X connect 95 0 135 0;
#X connect 96 0 95 0;
#X connect 97 0 96 0;
#X connect 98 0 101 1;
#X connect 99 0 101 0;
#X connect 100 0 121 0;
#X connect 100 0 122 0;
#X connect 100 0 123 0;
#X connect 100 0 133 0;
#X connect 100 0 132 0;
#X connect 100 0 131 0;
#X connect 100 0 130 0;
#X connect 101 0 134 0;
#X connect 102 0 104 1;
#X connect 103 0 104 0;
#X connect 104 0 136 0;
#X connect 105 0 107 1;
#X connect 106 0 107 0;
#X connect 107 0 119 0;
#X connect 108 0 110 1;
#X connect 109 0 110 0;
#X connect 110 0 129 0;
#X connect 111 0 113 1;
#X connect 112 0 113 0;
#X connect 113 0 120 0;
#X connect 114 0 116 1;
#X connect 115 0 116 0;
#X connect 116 0 137 0;
#X connect 117 0 97 0;
#X connect 117 0 118 0;
#X connect 117 0 124 0;
#X connect 117 0 125 0;
#X connect 117 0 126 0;
#X connect 117 0 127 0;
#X connect 117 0 128 0;
#X connect 118 0 99 0;
#X connect 119 0 139 0;
#X connect 120 0 139 0;
#X connect 121 0 94 0;
#X connect 122 0 98 0;
#X connect 123 0 102 0;
#X connect 124 0 115 0;
#X connect 125 0 112 0;
#X connect 126 0 109 0;
#X connect 127 0 106 0;
#X connect 128 0 103 0;
#X connect 129 0 139 0;
#X connect 130 0 114 0;
#X connect 131 0 111 0;
#X connect 132 0 108 0;
#X connect 133 0 105 0;
#X connect 134 0 139 0;
#X connect 135 0 139 0;
#X connect 136 0 139 0;
#X connect 137 0 139 0;
#X connect 138 0 117 0;
#X connect 138 0 100 0;
#X connect 140 0 141 1;
#X connect 141 0 181 0;
#X connect 142 0 141 0;
#X connect 143 0 142 0;
#X connect 144 0 147 1;
#X connect 145 0 147 0;
#X connect 146 0 167 0;
#X connect 146 0 168 0;
#X connect 146 0 169 0;
#X connect 146 0 179 0;
#X connect 146 0 178 0;
#X connect 146 0 177 0;
#X connect 146 0 176 0;
#X connect 147 0 180 0;
#X connect 148 0 150 1;
#X connect 149 0 150 0;
#X connect 150 0 182 0;
#X connect 151 0 153 1;
#X connect 152 0 153 0;
#X connect 153 0 165 0;
#X connect 154 0 156 1;
#X connect 155 0 156 0;
#X connect 156 0 175 0;
#X connect 157 0 159 1;
#X connect 158 0 159 0;
#X connect 159 0 166 0;
#X connect 160 0 162 1;
#X connect 161 0 162 0;
#X connect 162 0 183 0;
#X connect 163 0 143 0;
#X connect 163 0 164 0;
#X connect 163 0 170 0;
#X connect 163 0 171 0;
#X connect 163 0 172 0;
#X connect 163 0 173 0;
#X connect 163 0 174 0;
#X connect 164 0 145 0;
#X connect 165 0 185 0;
#X connect 166 0 185 0;
#X connect 167 0 140 0;
#X connect 168 0 144 0;
#X connect 169 0 148 0;
#X connect 170 0 161 0;
#X connect 171 0 158 0;
#X connect 172 0 155 0;
#X connect 173 0 152 0;
#X connect 174 0 149 0;
#X connect 175 0 185 0;
#X connect 176 0 160 0;
#X connect 177 0 157 0;
#X connect 178 0 154 0;
#X connect 179 0 151 0;
#X connect 180 0 185 0;
#X connect 181 0 185 0;
#X connect 182 0 185 0;
#X connect 183 0 185 0;
#X connect 184 0 163 0;
#X connect 184 0 146 0;
#X connect 188 0 189 1;
#X connect 189 0 229 0;
#X connect 190 0 189 0;
#X connect 191 0 190 0;
#X connect 192 0 195 1;
#X connect 193 0 195 0;
#X connect 194 0 215 0;
#X connect 194 0 216 0;
#X connect 194 0 217 0;
#X connect 194 0 227 0;
#X connect 194 0 226 0;
#X connect 194 0 225 0;
#X connect 194 0 224 0;
#X connect 195 0 228 0;
#X connect 196 0 198 1;
#X connect 197 0 198 0;
#X connect 198 0 230 0;
#X connect 199 0 201 1;
#X connect 200 0 201 0;
#X connect 201 0 213 0;
#X connect 202 0 204 1;
#X connect 203 0 204 0;
#X connect 204 0 223 0;
#X connect 205 0 207 1;
#X connect 206 0 207 0;
#X connect 207 0 214 0;
#X connect 208 0 210 1;
#X connect 209 0 210 0;
#X connect 210 0 231 0;
#X connect 211 0 191 0;
#X connect 211 0 212 0;
#X connect 211 0 218 0;
#X connect 211 0 219 0;
#X connect 211 0 220 0;
#X connect 211 0 221 0;
#X connect 211 0 222 0;
#X connect 212 0 193 0;
#X connect 213 0 233 0;
#X connect 214 0 233 0;
#X connect 215 0 188 0;
#X connect 216 0 192 0;
#X connect 217 0 196 0;
#X connect 218 0 209 0;
#X connect 219 0 206 0;
#X connect 220 0 203 0;
#X connect 221 0 200 0;
#X connect 222 0 197 0;
#X connect 223 0 233 0;
#X connect 224 0 208 0;
#X connect 225 0 205 0;
#X connect 226 0 202 0;
#X connect 227 0 199 0;
#X connect 228 0 233 0;
#X connect 229 0 233 0;
#X connect 230 0 233 0;
#X connect 231 0 233 0;
#X connect 232 0 211 0;
#X connect 232 0 194 0;
#X connect 234 0 235 1;
#X connect 235 0 275 0;
#X connect 236 0 235 0;
#X connect 237 0 236 0;
#X connect 238 0 241 1;
#X connect 239 0 241 0;
#X connect 240 0 261 0;
#X connect 240 0 262 0;
#X connect 240 0 263 0;
#X connect 240 0 273 0;
#X connect 240 0 272 0;
#X connect 240 0 271 0;
#X connect 240 0 270 0;
#X connect 241 0 274 0;
#X connect 242 0 244 1;
#X connect 243 0 244 0;
#X connect 244 0 276 0;
#X connect 245 0 247 1;
#X connect 246 0 247 0;
#X connect 247 0 259 0;
#X connect 248 0 250 1;
#X connect 249 0 250 0;
#X connect 250 0 269 0;
#X connect 251 0 253 1;
#X connect 252 0 253 0;
#X connect 253 0 260 0;
#X connect 254 0 256 1;
#X connect 255 0 256 0;
#X connect 256 0 277 0;
#X connect 257 0 237 0;
#X connect 257 0 258 0;
#X connect 257 0 264 0;
#X connect 257 0 265 0;
#X connect 257 0 266 0;
#X connect 257 0 267 0;
#X connect 257 0 268 0;
#X connect 258 0 239 0;
#X connect 259 0 279 0;
#X connect 260 0 279 0;
#X connect 261 0 234 0;
#X connect 262 0 238 0;
#X connect 263 0 242 0;
#X connect 264 0 255 0;
#X connect 265 0 252 0;
#X connect 266 0 249 0;
#X connect 267 0 246 0;
#X connect 268 0 243 0;
#X connect 269 0 279 0;
#X connect 270 0 254 0;
#X connect 271 0 251 0;
#X connect 272 0 248 0;
#X connect 273 0 245 0;
#X connect 274 0 279 0;
#X connect 275 0 279 0;
#X connect 276 0 279 0;
#X connect 277 0 279 0;
#X connect 278 0 257 0;
#X connect 278 0 240 0;
#X connect 280 0 281 1;
#X connect 281 0 321 0;
#X connect 282 0 281 0;
#X connect 283 0 282 0;
#X connect 284 0 287 1;
#X connect 285 0 287 0;
#X connect 286 0 307 0;
#X connect 286 0 308 0;
#X connect 286 0 309 0;
#X connect 286 0 319 0;
#X connect 286 0 318 0;
#X connect 286 0 317 0;
#X connect 286 0 316 0;
#X connect 287 0 320 0;
#X connect 288 0 290 1;
#X connect 289 0 290 0;
#X connect 290 0 322 0;
#X connect 291 0 293 1;
#X connect 292 0 293 0;
#X connect 293 0 305 0;
#X connect 294 0 296 1;
#X connect 295 0 296 0;
#X connect 296 0 315 0;
#X connect 297 0 299 1;
#X connect 298 0 299 0;
#X connect 299 0 306 0;
#X connect 300 0 302 1;
#X connect 301 0 302 0;
#X connect 302 0 323 0;
#X connect 303 0 283 0;
#X connect 303 0 304 0;
#X connect 303 0 310 0;
#X connect 303 0 311 0;
#X connect 303 0 312 0;
#X connect 303 0 313 0;
#X connect 303 0 314 0;
#X connect 304 0 285 0;
#X connect 305 0 325 0;
#X connect 306 0 325 0;
#X connect 307 0 280 0;
#X connect 308 0 284 0;
#X connect 309 0 288 0;
#X connect 310 0 301 0;
#X connect 311 0 298 0;
#X connect 312 0 295 0;
#X connect 313 0 292 0;
#X connect 314 0 289 0;
#X connect 315 0 325 0;
#X connect 316 0 300 0;
#X connect 317 0 297 0;
#X connect 318 0 294 0;
#X connect 319 0 291 0;
#X connect 320 0 325 0;
#X connect 321 0 325 0;
#X connect 322 0 325 0;
#X connect 323 0 325 0;
#X connect 324 0 303 0;
#X connect 324 0 286 0;
#X connect 326 0 327 1;
#X connect 327 0 367 0;
#X connect 328 0 327 0;
#X connect 329 0 328 0;
#X connect 330 0 333 1;
#X connect 331 0 333 0;
#X connect 332 0 353 0;
#X connect 332 0 354 0;
#X connect 332 0 355 0;
#X connect 332 0 365 0;
#X connect 332 0 364 0;
#X connect 332 0 363 0;
#X connect 332 0 362 0;
#X connect 333 0 366 0;
#X connect 334 0 336 1;
#X connect 335 0 336 0;
#X connect 336 0 368 0;
#X connect 337 0 339 1;
#X connect 338 0 339 0;
#X connect 339 0 351 0;
#X connect 340 0 342 1;
#X connect 341 0 342 0;
#X connect 342 0 361 0;
#X connect 343 0 345 1;
#X connect 344 0 345 0;
#X connect 345 0 352 0;
#X connect 346 0 348 1;
#X connect 347 0 348 0;
#X connect 348 0 369 0;
#X connect 349 0 329 0;
#X connect 349 0 350 0;
#X connect 349 0 356 0;
#X connect 349 0 357 0;
#X connect 349 0 358 0;
#X connect 349 0 359 0;
#X connect 349 0 360 0;
#X connect 350 0 331 0;
#X connect 351 0 371 0;
#X connect 352 0 371 0;
#X connect 353 0 326 0;
#X connect 354 0 330 0;
#X connect 355 0 334 0;
#X connect 356 0 347 0;
#X connect 357 0 344 0;
#X connect 358 0 341 0;
#X connect 359 0 338 0;
#X connect 360 0 335 0;
#X connect 361 0 371 0;
#X connect 362 0 346 0;
#X connect 363 0 343 0;
#X connect 364 0 340 0;
#X connect 365 0 337 0;
#X connect 366 0 371 0;
#X connect 367 0 371 0;
#X connect 368 0 371 0;
#X connect 369 0 371 0;
#X connect 370 0 349 0;
#X connect 370 0 332 0;
#X connect 376 0 377 0;
#X connect 377 0 381 0;
#X connect 378 0 379 0;
#X connect 378 1 380 0;
#X connect 379 0 382 0;
#X connect 381 0 378 0;
#X connect 382 0 406 0;
#X connect 382 0 389 0;
#X connect 383 0 384 1;
#X connect 384 0 427 0;
#X connect 385 0 384 0;
#X connect 386 0 385 0;
#X connect 387 0 390 1;
#X connect 388 0 390 0;
#X connect 389 0 415 0;
#X connect 389 0 416 0;
#X connect 389 0 408 0;
#X connect 389 0 412 0;
#X connect 389 0 411 0;
#X connect 389 0 410 0;
#X connect 389 0 409 0;
#X connect 390 0 428 0;
#X connect 391 0 393 1;
#X connect 392 0 393 0;
#X connect 393 0 429 0;
#X connect 394 0 396 1;
#X connect 395 0 396 0;
#X connect 396 0 430 0;
#X connect 397 0 399 1;
#X connect 398 0 399 0;
#X connect 399 0 433 0;
#X connect 400 0 402 1;
#X connect 401 0 402 0;
#X connect 402 0 431 0;
#X connect 403 0 405 1;
#X connect 404 0 405 0;
#X connect 405 0 432 0;
#X connect 406 0 386 0;
#X connect 406 0 407 0;
#X connect 406 0 422 0;
#X connect 406 0 423 0;
#X connect 406 0 424 0;
#X connect 406 0 425 0;
#X connect 406 0 426 0;
#X connect 407 0 388 0;
#X connect 408 0 391 0;
#X connect 409 0 403 0;
#X connect 410 0 400 0;
#X connect 411 0 397 0;
#X connect 412 0 394 0;
#X connect 414 0 413 0;
#X connect 414 0 413 1;
#X connect 415 0 383 0;
#X connect 416 0 387 0;
#X connect 418 0 419 0;
#X connect 421 0 418 0;
#X connect 422 0 392 0;
#X connect 423 0 398 0;
#X connect 424 0 404 0;
#X connect 425 0 401 0;
#X connect 426 0 395 0;
#X connect 427 0 414 0;
#X connect 428 0 414 0;
#X connect 429 0 414 0;
#X connect 430 0 414 0;
#X connect 431 0 414 0;
#X connect 432 0 414 0;
#X connect 433 0 414 0;
