#N canvas 771 209 596 447 10;
#X msg 193 12 2000 1000 0.5 2000;
#X obj 50 37 unpack 0 0 0 0;
#X floatatom 51 69 5 0 0 0 - - -;
#X floatatom 95 68 5 0 0 0 - - -;
#X floatatom 137 69 5 0 0 0 - - -;
#X floatatom 181 69 5 0 0 0 - - -;
#X obj 39 237 line~;
#X msg 14 156 1 \$1;
#X obj 90 112 float;
#X obj 52 156 pack 0 0;
#X obj 48 91 t b f;
#X obj 48 112 delay;
#X obj 48 132 bng 15 250 50 0 empty empty empty 17 7 0 10 -262144 -1
-1;
#X msg 126 205 0 \$1;
#X obj 126 146 delay;
#X obj 126 165 bng 15 250 50 0 empty empty empty 17 7 0 10 -262144
-1 -1;
#X obj 126 184 float;
#X obj 48 14 inlet;
#X obj 39 257 outlet~;
#X obj 256 212 cyclone/scope~ 329 185 256 3 128 -1 1 0 0 0 0 205 229
232 74 79 77 96 98 102 0;
#X text 215 30 inlet a list;
#X connect 1 0 2 0;
#X connect 1 1 3 0;
#X connect 1 2 4 0;
#X connect 1 3 5 0;
#X connect 2 0 7 0;
#X connect 2 0 10 0;
#X connect 3 0 9 1;
#X connect 3 0 14 1;
#X connect 4 0 8 1;
#X connect 5 0 16 1;
#X connect 6 0 19 0;
#X connect 6 0 18 0;
#X connect 7 0 6 0;
#X connect 8 0 9 0;
#X connect 9 0 6 0;
#X connect 10 0 11 0;
#X connect 10 1 11 1;
#X connect 11 0 12 0;
#X connect 12 0 8 0;
#X connect 12 0 14 0;
#X connect 13 0 6 0;
#X connect 14 0 15 0;
#X connect 15 0 16 0;
#X connect 16 0 13 0;
#X connect 17 0 1 0;
