#N canvas 28 68 1398 485 10;
#X obj 12 269 bng 15 250 50 0 empty empty empty 17 7 0 10 -262144 -1
-1;
#X obj 12 291 cyclone/seq s.mid;
#X obj 12 337 unpack;
#X obj 12 358 nbx 3 14 -1e+37 1e+37 0 0 empty empty empty 0 -8 0 10
-228856 -1 -1 0 256;
#X obj 64 351 nbx 3 14 -1e+37 1e+37 0 0 empty empty empty 0 -8 0 10
-228856 -1 -1 0 256;
#X obj 12 313 cyclone/midiparse @hires 2;
#X obj 12 376 mtof;
#X obj 183 269 bng 15 250 50 0 empty empty empty 17 7 0 10 -262144
-1 -1;
#X obj 183 337 unpack;
#X obj 183 358 nbx 3 14 -1e+37 1e+37 0 0 empty empty empty 0 -8 0 10
-228856 -1 -1 0 256;
#X obj 235 351 nbx 3 14 -1e+37 1e+37 0 0 empty empty empty 0 -8 0 10
-228856 -1 -1 0 256;
#X obj 183 313 cyclone/midiparse @hires 2;
#X obj 183 376 mtof;
#X obj 183 291 cyclone/seq a.mid;
#X obj 357 269 bng 15 250 50 0 empty empty empty 17 7 0 10 -262144
-1 -1;
#X obj 357 337 unpack;
#X obj 357 358 nbx 3 14 -1e+37 1e+37 0 0 empty empty empty 0 -8 0 10
-228856 -1 -1 0 256;
#X obj 409 351 nbx 3 14 -1e+37 1e+37 0 0 empty empty empty 0 -8 0 10
-228856 -1 -1 0 256;
#X obj 357 313 cyclone/midiparse @hires 2;
#X obj 357 376 mtof;
#X obj 528 269 bng 15 250 50 0 empty empty empty 17 7 0 10 -262144
-1 -1;
#X obj 528 337 unpack;
#X obj 528 358 nbx 3 14 -1e+37 1e+37 0 0 empty empty empty 0 -8 0 10
-228856 -1 -1 0 256;
#X obj 580 351 nbx 3 14 -1e+37 1e+37 0 0 empty empty empty 0 -8 0 10
-228856 -1 -1 0 256;
#X obj 528 313 cyclone/midiparse @hires 2;
#X obj 528 376 mtof;
#X obj 699 269 bng 15 250 50 0 empty empty empty 17 7 0 10 -262144
-1 -1;
#X obj 699 337 unpack;
#X obj 699 358 nbx 3 14 -1e+37 1e+37 0 0 empty empty empty 0 -8 0 10
-228856 -1 -1 0 256;
#X obj 751 351 nbx 3 14 -1e+37 1e+37 0 0 empty empty empty 0 -8 0 10
-228856 -1 -1 0 256;
#X obj 699 313 cyclone/midiparse @hires 2;
#X obj 699 376 mtof;
#X obj 870 269 bng 15 250 50 0 empty empty empty 17 7 0 10 -262144
-1 -1;
#X obj 870 337 unpack;
#X obj 870 358 nbx 3 14 -1e+37 1e+37 0 0 empty empty empty 0 -8 0 10
-228856 -1 -1 0 256;
#X obj 922 351 nbx 3 14 -1e+37 1e+37 0 0 empty empty empty 0 -8 0 10
-228856 -1 -1 0 256;
#X obj 870 313 cyclone/midiparse @hires 2;
#X obj 870 376 mtof;
#X obj 1044 269 bng 15 250 50 0 empty empty empty 17 7 0 10 -262144
-1 -1;
#X obj 1044 337 unpack;
#X obj 1044 358 nbx 3 14 -1e+37 1e+37 0 0 empty empty empty 0 -8 0
10 -228856 -1 -1 0 256;
#X obj 1096 351 nbx 3 14 -1e+37 1e+37 0 0 empty empty empty 0 -8 0
10 -228856 -1 -1 0 256;
#X obj 1044 313 cyclone/midiparse @hires 2;
#X obj 1044 376 mtof;
#X obj 1215 269 bng 15 250 50 0 empty empty empty 17 7 0 10 -262144
-1 -1;
#X obj 1215 337 unpack;
#X obj 1215 358 nbx 3 14 -1e+37 1e+37 0 0 empty empty empty 0 -8 0
10 -228856 -1 -1 0 256;
#X obj 1267 351 nbx 3 14 -1e+37 1e+37 0 0 empty empty empty 0 -8 0
10 -228856 -1 -1 0 256;
#X obj 1215 313 cyclone/midiparse @hires 2;
#X obj 1215 376 mtof;
#X obj 649 233 bng 15 250 50 0 empty empty empty 17 7 0 10 -262144
-1 -1;
#X obj 357 291 cyclone/seq t.mid;
#X obj 528 291 cyclone/seq b.mid;
#X obj 699 291 cyclone/seq p1.mid;
#X obj 870 291 cyclone/seq p2.mid;
#X obj 1044 291 cyclone/seq p3.mid;
#X obj 1215 291 cyclone/seq p4.mid;
#X obj 11 417 outlet;
#X obj 183 415 outlet;
#X obj 356 411 outlet;
#X obj 528 409 outlet;
#X obj 699 411 outlet;
#X obj 871 409 outlet;
#X obj 1039 408 outlet;
#X obj 1211 406 outlet;
#X obj 649 198 inlet;
#X connect 0 0 1 0;
#X connect 1 0 5 0;
#X connect 2 0 3 0;
#X connect 2 1 4 0;
#X connect 3 0 6 0;
#X connect 5 0 2 0;
#X connect 6 0 57 0;
#X connect 7 0 13 0;
#X connect 8 0 9 0;
#X connect 8 1 10 0;
#X connect 9 0 12 0;
#X connect 11 0 8 0;
#X connect 12 0 58 0;
#X connect 13 0 11 0;
#X connect 14 0 51 0;
#X connect 15 0 16 0;
#X connect 15 1 17 0;
#X connect 16 0 19 0;
#X connect 18 0 15 0;
#X connect 19 0 59 0;
#X connect 20 0 52 0;
#X connect 21 0 22 0;
#X connect 21 1 23 0;
#X connect 22 0 25 0;
#X connect 24 0 21 0;
#X connect 25 0 60 0;
#X connect 26 0 53 0;
#X connect 27 0 28 0;
#X connect 27 1 29 0;
#X connect 28 0 31 0;
#X connect 30 0 27 0;
#X connect 31 0 61 0;
#X connect 32 0 54 0;
#X connect 33 0 34 0;
#X connect 33 1 35 0;
#X connect 34 0 37 0;
#X connect 36 0 33 0;
#X connect 37 0 62 0;
#X connect 38 0 55 0;
#X connect 39 0 40 0;
#X connect 39 1 41 0;
#X connect 40 0 43 0;
#X connect 42 0 39 0;
#X connect 43 0 63 0;
#X connect 44 0 56 0;
#X connect 45 0 46 0;
#X connect 45 1 47 0;
#X connect 46 0 49 0;
#X connect 48 0 45 0;
#X connect 49 0 64 0;
#X connect 50 0 20 0;
#X connect 50 0 44 0;
#X connect 50 0 38 0;
#X connect 50 0 32 0;
#X connect 50 0 26 0;
#X connect 50 0 14 0;
#X connect 50 0 7 0;
#X connect 50 0 0 0;
#X connect 51 0 18 0;
#X connect 52 0 24 0;
#X connect 53 0 30 0;
#X connect 54 0 36 0;
#X connect 55 0 42 0;
#X connect 56 0 48 0;
#X connect 65 0 50 0;
