#N canvas 27 23 1317 849 10;
#X obj 28 25 bng 15 250 50 0 empty empty empty 17 7 0 10 -262144 -1
-1;
#X obj 28 47 cyclone/seq s.mid;
#X obj 28 93 unpack;
#X obj 28 114 nbx 3 14 -1e+37 1e+37 0 0 empty empty empty 0 -8 0 10
-228856 -1 -1 81 256;
#X obj 80 107 nbx 3 14 -1e+37 1e+37 0 0 empty empty empty 0 -8 0 10
-228856 -1 -1 80 256;
#X obj 28 69 cyclone/midiparse @hires 2;
#X obj 28 132 mtof;
#X obj 354 105 sigmund~ -npeak 10 peaks;
#X obj 354 125 route 0 1 2 3 4 5 6 7 8 9;
#X obj 207 173 unpack 0 0 0 0, f 7;
#X floatatom 207 232 5 0 0 0 - - -;
#X floatatom 219 206 5 0 0 0 - - -;
#X obj 257 173 unpack 0 0 0 0, f 7;
#X floatatom 257 232 5 0 0 0 - - -;
#X floatatom 269 206 5 0 0 0 - - -;
#X obj 307 173 unpack 0 0 0 0, f 7;
#X floatatom 307 232 5 0 0 0 - - -;
#X floatatom 319 206 5 0 0 0 - - -;
#X obj 357 173 unpack 0 0 0 0, f 7;
#X floatatom 357 232 5 0 0 0 - - -;
#X floatatom 369 206 5 0 0 0 - - -;
#X obj 406 173 unpack 0 0 0 0, f 7;
#X floatatom 406 232 5 0 0 0 - - -;
#X floatatom 418 206 5 0 0 0 - - -;
#X obj 456 173 unpack 0 0 0 0, f 7;
#X floatatom 456 232 5 0 0 0 - - -;
#X floatatom 468 206 5 0 0 0 - - -;
#X obj 506 173 unpack 0 0 0 0, f 7;
#X floatatom 506 232 5 0 0 0 - - -;
#X floatatom 518 206 5 0 0 0 - - -;
#X obj 556 173 unpack 0 0 0 0, f 7;
#X floatatom 556 232 5 0 0 0 - - -;
#X floatatom 568 206 5 0 0 0 - - -;
#X obj 606 173 unpack 0 0 0 0, f 7;
#X floatatom 606 232 5 0 0 0 - - -;
#X floatatom 618 206 5 0 0 0 - - -;
#X obj 655 173 unpack 0 0 0 0, f 7;
#X floatatom 655 232 5 0 0 0 - - -;
#X floatatom 667 206 5 0 0 0 - - -;
#X obj 395 79 readsf~ 1;
#X msg 395 60 1;
#X obj 395 23 t b b;
#X obj 395 4 bng 15 250 50 0 empty empty empty 17 7 0 10 -262144 -1
-1;
#X obj 111 276 *~;
#X obj 109 295 osc~;
#X msg 147 282 \$1 20;
#X obj 148 302 line~;
#X obj 109 317 *~;
#X obj 213 13 bng 15 250 50 0 empty empty empty 17 7 0 10 -262144 -1
-1;
#X obj 191 279 *~;
#X obj 189 298 osc~;
#X msg 227 285 \$1 20;
#X obj 228 305 line~;
#X obj 189 320 *~;
#X obj 277 282 *~;
#X obj 275 301 osc~;
#X msg 313 288 \$1 20;
#X obj 314 308 line~;
#X obj 275 323 *~;
#X obj 243 363 +~;
#X obj 362 281 *~;
#X obj 360 300 osc~;
#X msg 398 287 \$1 20;
#X obj 399 307 line~;
#X obj 360 322 *~;
#X obj 442 284 *~;
#X obj 440 303 osc~;
#X msg 478 290 \$1 20;
#X obj 479 310 line~;
#X obj 440 325 *~;
#X obj 528 287 *~;
#X obj 526 306 osc~;
#X msg 564 293 \$1 20;
#X obj 565 313 line~;
#X obj 526 328 *~;
#X obj 611 283 *~;
#X obj 609 302 osc~;
#X msg 647 289 \$1 20;
#X obj 648 309 line~;
#X obj 609 324 *~;
#X obj 691 286 *~;
#X obj 689 305 osc~;
#X msg 727 292 \$1 20;
#X obj 728 312 line~;
#X obj 689 327 *~;
#X obj 777 289 *~;
#X obj 775 308 osc~;
#X msg 813 295 \$1 20;
#X obj 814 315 line~;
#X obj 775 330 *~;
#X obj 858 288 *~;
#X obj 856 307 osc~;
#X msg 894 294 \$1 20;
#X obj 895 314 line~;
#X obj 856 329 *~;
#X obj 112 257 *~;
#X obj 190 260 *~;
#X obj 276 263 *~;
#X obj 364 257 *~;
#X obj 441 265 *~;
#X obj 527 268 *~;
#X obj 613 266 *~;
#X obj 690 267 *~;
#X obj 776 270 *~;
#X obj 857 269 *~;
#X msg 401 42 open sounds/bird1.wav;
#X obj 388 405 bng 15 250 50 0 empty empty empty 17 7 0 10 -262144
-1 -1;
#X obj 388 473 unpack;
#X obj 388 494 nbx 3 14 -1e+37 1e+37 0 0 empty empty empty 0 -8 0 10
-228856 -1 -1 85 256;
#X obj 440 487 nbx 3 14 -1e+37 1e+37 0 0 empty empty empty 0 -8 0 10
-228856 -1 -1 80 256;
#X obj 388 449 cyclone/midiparse @hires 2;
#X obj 394 534 mtof;
#X obj 714 485 sigmund~ -npeak 10 peaks;
#X obj 714 505 route 0 1 2 3 4 5 6 7 8 9;
#X obj 567 553 unpack 0 0 0 0, f 7;
#X floatatom 567 612 5 0 0 0 - - -;
#X floatatom 579 586 5 0 0 0 - - -;
#X obj 617 553 unpack 0 0 0 0, f 7;
#X floatatom 617 612 5 0 0 0 - - -;
#X floatatom 629 586 5 0 0 0 - - -;
#X obj 667 553 unpack 0 0 0 0, f 7;
#X floatatom 667 612 5 0 0 0 - - -;
#X floatatom 679 586 5 0 0 0 - - -;
#X obj 717 553 unpack 0 0 0 0, f 7;
#X floatatom 717 612 5 0 0 0 - - -;
#X floatatom 729 586 5 0 0 0 - - -;
#X obj 766 553 unpack 0 0 0 0, f 7;
#X floatatom 766 612 5 0 0 0 - - -;
#X floatatom 778 586 5 0 0 0 - - -;
#X obj 816 553 unpack 0 0 0 0, f 7;
#X floatatom 816 612 5 0 0 0 - - -;
#X floatatom 828 586 5 0 0 0 - - -;
#X obj 866 553 unpack 0 0 0 0, f 7;
#X floatatom 866 612 5 0 0 0 - - -;
#X floatatom 878 586 5 0 0 0 - - -;
#X obj 916 553 unpack 0 0 0 0, f 7;
#X floatatom 916 612 5 0 0 0 - - -;
#X floatatom 928 586 5 0 0 0 - - -;
#X obj 966 553 unpack 0 0 0 0, f 7;
#X floatatom 966 612 5 0 0 0 - - -;
#X floatatom 978 586 5 0 0 0 - - -;
#X obj 1015 553 unpack 0 0 0 0, f 7;
#X floatatom 1015 612 5 0 0 0 - - -;
#X floatatom 1027 586 5 0 0 0 - - -;
#X obj 755 459 readsf~ 1;
#X msg 755 440 1;
#X obj 755 403 t b b;
#X obj 755 384 bng 15 250 50 0 empty empty empty 17 7 0 10 -262144
-1 -1;
#X obj 469 675 osc~;
#X msg 507 662 \$1 20;
#X obj 508 682 line~;
#X obj 469 697 *~;
#X obj 573 393 bng 15 250 50 0 empty empty empty 17 7 0 10 -262144
-1 -1;
#X obj 549 678 osc~;
#X msg 587 665 \$1 20;
#X obj 588 685 line~;
#X obj 549 700 *~;
#X obj 635 681 osc~;
#X msg 673 668 \$1 20;
#X obj 674 688 line~;
#X obj 635 703 *~;
#X obj 603 743 +~;
#X obj 720 680 osc~;
#X msg 758 667 \$1 20;
#X obj 759 687 line~;
#X obj 720 702 *~;
#X obj 800 683 osc~;
#X msg 838 670 \$1 20;
#X obj 839 690 line~;
#X obj 800 705 *~;
#X obj 886 686 osc~;
#X msg 924 673 \$1 20;
#X obj 925 693 line~;
#X obj 886 708 *~;
#X obj 969 682 osc~;
#X msg 1007 669 \$1 20;
#X obj 1008 689 line~;
#X obj 969 704 *~;
#X obj 1049 685 osc~;
#X msg 1087 672 \$1 20;
#X obj 1088 692 line~;
#X obj 1049 707 *~;
#X obj 1135 688 osc~;
#X msg 1173 675 \$1 20;
#X obj 1174 695 line~;
#X obj 1135 710 *~;
#X obj 1216 687 osc~;
#X msg 1254 674 \$1 20;
#X obj 1255 694 line~;
#X obj 1216 709 *~;
#X msg 761 422 open sounds/bird1.wav;
#X obj 411 662 osc~;
#X obj 388 427 cyclone/seq a.mid;
#X obj 212 594 +~;
#X obj 216 666 dac~ 1 2;
#X obj 608 63 bng 15 250 50 0 empty empty empty 17 7 0 10 -262144 -1
-1;
#X obj 411 682 *~ 0.001;
#X obj 469 652 *~ 1;
#X obj 547 654 *~ 2;
#X obj 636 658 *~ 4;
#X obj 720 659 *~ 8;
#X obj 797 664 *~ 16;
#X obj 883 666 *~ 32;
#X obj 967 661 *~ 64;
#X obj 1046 665 *~ 128;
#X obj 1129 669 *~ 256;
#X obj 1214 662 *~ 512;
#X msg 786 223 0.001;
#X connect 0 0 1 0;
#X connect 1 0 5 0;
#X connect 1 1 0 0;
#X connect 2 0 3 0;
#X connect 2 1 4 0;
#X connect 3 0 6 0;
#X connect 5 0 2 0;
#X connect 6 0 43 0;
#X connect 6 0 49 0;
#X connect 6 0 54 0;
#X connect 6 0 60 0;
#X connect 6 0 65 0;
#X connect 6 0 70 0;
#X connect 6 0 75 0;
#X connect 6 0 80 0;
#X connect 6 0 85 0;
#X connect 6 0 90 0;
#X connect 7 0 8 0;
#X connect 8 0 9 0;
#X connect 8 1 12 0;
#X connect 8 2 15 0;
#X connect 8 3 18 0;
#X connect 8 4 21 0;
#X connect 8 5 24 0;
#X connect 8 6 27 0;
#X connect 8 7 30 0;
#X connect 8 8 33 0;
#X connect 8 9 36 0;
#X connect 9 0 10 0;
#X connect 9 1 11 0;
#X connect 10 0 95 0;
#X connect 11 0 45 0;
#X connect 12 0 13 0;
#X connect 12 1 14 0;
#X connect 13 0 96 0;
#X connect 14 0 51 0;
#X connect 15 0 16 0;
#X connect 15 1 17 0;
#X connect 16 0 97 0;
#X connect 17 0 56 0;
#X connect 18 0 19 0;
#X connect 18 1 20 0;
#X connect 19 0 98 0;
#X connect 20 0 62 0;
#X connect 21 0 22 0;
#X connect 21 1 23 0;
#X connect 22 0 99 0;
#X connect 23 0 67 0;
#X connect 24 0 25 0;
#X connect 24 1 26 0;
#X connect 25 0 100 0;
#X connect 26 0 72 0;
#X connect 27 0 28 0;
#X connect 27 1 29 0;
#X connect 28 0 101 0;
#X connect 29 0 77 0;
#X connect 30 0 31 0;
#X connect 30 1 32 0;
#X connect 31 0 102 0;
#X connect 32 0 82 0;
#X connect 33 0 34 0;
#X connect 33 1 35 0;
#X connect 34 0 103 0;
#X connect 35 0 87 0;
#X connect 36 0 37 0;
#X connect 36 1 38 0;
#X connect 37 0 104 0;
#X connect 38 0 92 0;
#X connect 39 0 7 0;
#X connect 39 1 42 0;
#X connect 40 0 39 0;
#X connect 41 0 40 0;
#X connect 41 1 105 0;
#X connect 42 0 41 0;
#X connect 43 0 44 0;
#X connect 44 0 47 0;
#X connect 45 0 46 0;
#X connect 46 0 47 1;
#X connect 47 0 59 0;
#X connect 48 0 0 0;
#X connect 48 0 42 0;
#X connect 49 0 50 0;
#X connect 50 0 53 0;
#X connect 51 0 52 0;
#X connect 52 0 53 1;
#X connect 53 0 59 0;
#X connect 54 0 55 0;
#X connect 55 0 58 0;
#X connect 56 0 57 0;
#X connect 57 0 58 1;
#X connect 58 0 59 0;
#X connect 59 0 193 0;
#X connect 60 0 61 0;
#X connect 61 0 64 0;
#X connect 62 0 63 0;
#X connect 63 0 64 1;
#X connect 64 0 59 0;
#X connect 65 0 66 0;
#X connect 66 0 69 0;
#X connect 67 0 68 0;
#X connect 68 0 69 1;
#X connect 69 0 59 0;
#X connect 70 0 71 0;
#X connect 71 0 74 0;
#X connect 72 0 73 0;
#X connect 73 0 74 1;
#X connect 74 0 59 0;
#X connect 75 0 76 0;
#X connect 76 0 79 0;
#X connect 77 0 78 0;
#X connect 78 0 79 1;
#X connect 79 0 59 0;
#X connect 80 0 81 0;
#X connect 81 0 84 0;
#X connect 82 0 83 0;
#X connect 83 0 84 1;
#X connect 84 0 59 0;
#X connect 85 0 86 0;
#X connect 86 0 89 0;
#X connect 87 0 88 0;
#X connect 88 0 89 1;
#X connect 89 0 59 0;
#X connect 90 0 91 0;
#X connect 91 0 94 0;
#X connect 92 0 93 0;
#X connect 93 0 94 1;
#X connect 94 0 59 0;
#X connect 95 0 43 1;
#X connect 96 0 49 1;
#X connect 97 0 54 1;
#X connect 98 0 60 1;
#X connect 99 0 65 1;
#X connect 100 0 70 1;
#X connect 101 0 75 1;
#X connect 102 0 80 1;
#X connect 103 0 85 1;
#X connect 104 0 90 1;
#X connect 105 0 39 0;
#X connect 106 0 192 0;
#X connect 107 0 108 0;
#X connect 107 1 109 0;
#X connect 108 0 111 0;
#X connect 110 0 107 0;
#X connect 111 0 191 0;
#X connect 111 0 197 0;
#X connect 111 0 198 0;
#X connect 111 0 199 0;
#X connect 111 0 200 0;
#X connect 111 0 201 0;
#X connect 111 0 202 0;
#X connect 111 0 203 0;
#X connect 111 0 204 0;
#X connect 111 0 205 0;
#X connect 111 0 206 0;
#X connect 112 0 113 0;
#X connect 113 0 114 0;
#X connect 113 1 117 0;
#X connect 113 2 120 0;
#X connect 113 3 123 0;
#X connect 113 4 126 0;
#X connect 113 5 129 0;
#X connect 113 6 132 0;
#X connect 113 7 135 0;
#X connect 113 8 138 0;
#X connect 113 9 141 0;
#X connect 114 0 115 0;
#X connect 114 1 116 0;
#X connect 116 0 149 0;
#X connect 117 0 118 0;
#X connect 117 1 119 0;
#X connect 119 0 154 0;
#X connect 120 0 121 0;
#X connect 120 1 122 0;
#X connect 122 0 158 0;
#X connect 123 0 124 0;
#X connect 123 1 125 0;
#X connect 125 0 163 0;
#X connect 126 0 127 0;
#X connect 126 1 128 0;
#X connect 128 0 167 0;
#X connect 129 0 130 0;
#X connect 129 1 131 0;
#X connect 131 0 171 0;
#X connect 132 0 133 0;
#X connect 132 1 134 0;
#X connect 134 0 175 0;
#X connect 135 0 136 0;
#X connect 135 1 137 0;
#X connect 137 0 179 0;
#X connect 138 0 139 0;
#X connect 138 1 140 0;
#X connect 140 0 183 0;
#X connect 141 0 142 0;
#X connect 141 1 143 0;
#X connect 143 0 187 0;
#X connect 144 0 112 0;
#X connect 144 1 147 0;
#X connect 145 0 144 0;
#X connect 146 0 145 0;
#X connect 146 1 190 0;
#X connect 147 0 146 0;
#X connect 148 0 151 0;
#X connect 149 0 150 0;
#X connect 150 0 151 1;
#X connect 151 0 161 0;
#X connect 152 0 106 0;
#X connect 152 0 147 0;
#X connect 153 0 156 0;
#X connect 154 0 155 0;
#X connect 155 0 156 1;
#X connect 156 0 161 0;
#X connect 157 0 160 0;
#X connect 158 0 159 0;
#X connect 159 0 160 1;
#X connect 160 0 161 0;
#X connect 162 0 165 0;
#X connect 163 0 164 0;
#X connect 164 0 165 1;
#X connect 165 0 161 0;
#X connect 166 0 169 0;
#X connect 167 0 168 0;
#X connect 168 0 169 1;
#X connect 169 0 161 0;
#X connect 170 0 173 0;
#X connect 171 0 172 0;
#X connect 172 0 173 1;
#X connect 173 0 161 0;
#X connect 174 0 177 0;
#X connect 175 0 176 0;
#X connect 176 0 177 1;
#X connect 177 0 161 0;
#X connect 178 0 181 0;
#X connect 179 0 180 0;
#X connect 180 0 181 1;
#X connect 181 0 161 0;
#X connect 182 0 185 0;
#X connect 183 0 184 0;
#X connect 184 0 185 1;
#X connect 185 0 161 0;
#X connect 186 0 189 0;
#X connect 187 0 188 0;
#X connect 188 0 189 1;
#X connect 189 0 161 0;
#X connect 190 0 144 0;
#X connect 191 0 196 0;
#X connect 192 0 110 0;
#X connect 192 1 106 0;
#X connect 193 0 194 0;
#X connect 193 0 194 1;
#X connect 195 0 48 0;
#X connect 195 0 152 0;
#X connect 195 0 207 0;
#X connect 196 0 161 0;
#X connect 197 0 148 0;
#X connect 198 0 153 0;
#X connect 199 0 157 0;
#X connect 200 0 162 0;
#X connect 201 0 166 0;
#X connect 202 0 170 0;
#X connect 203 0 174 0;
#X connect 204 0 178 0;
#X connect 205 0 182 0;
#X connect 206 0 186 0;
#X connect 207 0 103 1;
#X connect 207 0 104 1;
#X connect 207 0 102 1;
#X connect 207 0 101 1;
#X connect 207 0 100 1;
#X connect 207 0 99 1;
#X connect 207 0 98 1;
#X connect 207 0 97 1;
#X connect 207 0 96 1;
#X connect 207 0 95 1;
