#N canvas 45 23 1392 855 10;
#X obj 13 603 *~ 0.1;
#X obj 184 603 *~ 0.1;
#X obj 358 603 *~ 0.1;
#X obj 529 603 *~ 0.1;
#X obj 700 603 *~ 0.1;
#X obj 871 603 *~ 0.1;
#X obj 1045 603 *~ 0.1;
#X obj 1216 603 *~ 0.1;
#X obj 602 733 dac~ 1 2;
#X obj 37 72 original;
#X obj 38 15 bng 15 250 50 0 empty empty empty 17 7 0 10 -262144 -1
-1;
#X obj 84 43 bng 15 250 50 0 empty empty empty 17 7 0 10 -262144 -1
-1;
#X text 103 44 stop;
#X text 56 16 start;
#X obj 473 222 midiOriginal, f 41;
#X obj 474 179 bng 15 250 50 0 empty empty empty 17 7 0 10 -262144
-1 -1;
#X obj 556 321 ramp~;
#X obj 591 336 *~;
#X obj 528 321 osc~;
#X obj 405 307 * 1;
#X obj 556 341 ramp~;
#X obj 528 341 osc~;
#X obj 323 398 bng 15 250 50 0 empty empty empty 17 7 0 10 -262144
-1 -1;
#X obj 591 356 *~;
#X obj 555 361 ramp~;
#X obj 527 361 osc~;
#X obj 590 376 *~;
#X obj 555 380 ramp~;
#X obj 527 380 osc~;
#X obj 590 395 *~;
#X obj 555 400 ramp~;
#X obj 527 400 osc~;
#X obj 590 415 *~;
#X obj 555 420 ramp~;
#X obj 527 420 osc~;
#X obj 590 435 *~;
#X obj 555 440 ramp~;
#X obj 527 440 osc~;
#X obj 590 455 *~;
#X floatatom 323 356 5 0 0 0 - - -;
#X obj 404 326 * 2;
#X obj 659 410 *~ 0.01;
#X obj 660 450 *~ 0.032;
#X msg 432 307 50 500 0.1 800;
#X msg 431 326 40 400 0.2 700;
#X msg 431 346 30 70 0.2 500;
#X obj 403 425 * 90;
#X obj 402 406 * 80;
#X obj 403 385 * 60;
#X obj 404 366 * 20;
#X obj 403 347 * 4;
#X obj 660 430 *~ 0.03;
#X msg 430 424 500 30 0.2 55;
#X msg 431 405 600 55 0.2 88;
#X msg 431 385 200 60 0.2 90;
#X msg 431 365 50 65 0.2 120;
#X obj 660 371 *~ 0.3;
#X obj 661 351 *~ 0.3;
#X obj 659 391 *~ 0.2;
#X obj 660 470 *~ 0.05;
#X obj 904 155 sel 1 2 3 4 5 6 7 8 9 10;
#X connect 0 0 8 0;
#X connect 0 0 8 1;
#X connect 1 0 8 0;
#X connect 1 0 8 1;
#X connect 2 0 8 0;
#X connect 2 0 8 1;
#X connect 3 0 8 0;
#X connect 3 0 8 1;
#X connect 4 0 8 0;
#X connect 4 0 8 1;
#X connect 5 0 8 0;
#X connect 5 0 8 1;
#X connect 6 0 8 0;
#X connect 6 0 8 1;
#X connect 7 0 8 0;
#X connect 7 0 8 1;
#X connect 10 0 9 0;
#X connect 11 0 9 1;
#X connect 14 0 39 0;
#X connect 14 0 22 0;
#X connect 15 0 14 0;
#X connect 16 0 17 1;
#X connect 17 0 57 0;
#X connect 18 0 17 0;
#X connect 19 0 18 0;
#X connect 20 0 23 1;
#X connect 21 0 23 0;
#X connect 22 0 43 0;
#X connect 22 0 44 0;
#X connect 22 0 45 0;
#X connect 22 0 55 0;
#X connect 22 0 54 0;
#X connect 22 0 53 0;
#X connect 22 0 52 0;
#X connect 23 0 56 0;
#X connect 24 0 26 1;
#X connect 25 0 26 0;
#X connect 26 0 58 0;
#X connect 27 0 29 1;
#X connect 28 0 29 0;
#X connect 29 0 41 0;
#X connect 30 0 32 1;
#X connect 31 0 32 0;
#X connect 32 0 51 0;
#X connect 33 0 35 1;
#X connect 34 0 35 0;
#X connect 35 0 42 0;
#X connect 36 0 38 1;
#X connect 37 0 38 0;
#X connect 38 0 59 0;
#X connect 39 0 19 0;
#X connect 39 0 40 0;
#X connect 39 0 46 0;
#X connect 39 0 47 0;
#X connect 39 0 48 0;
#X connect 39 0 49 0;
#X connect 39 0 50 0;
#X connect 40 0 21 0;
#X connect 41 0 0 0;
#X connect 42 0 0 0;
#X connect 43 0 16 0;
#X connect 44 0 20 0;
#X connect 45 0 24 0;
#X connect 46 0 37 0;
#X connect 47 0 34 0;
#X connect 48 0 31 0;
#X connect 49 0 28 0;
#X connect 50 0 25 0;
#X connect 51 0 0 0;
#X connect 52 0 36 0;
#X connect 53 0 33 0;
#X connect 54 0 30 0;
#X connect 55 0 27 0;
#X connect 56 0 0 0;
#X connect 57 0 0 0;
#X connect 58 0 0 0;
#X connect 59 0 0 0;
